<svg width="24" height="24" viewBox="0 0 24 24" fill="none" xmlns="http://www.w3.org/2000/svg">
<path d="M0 12C0 5.37258 5.37258 0 12 0V0C18.6274 0 24 5.37258 24 12V12C24 18.6274 18.6274 24 12 24V24C5.37258 24 0 18.6274 0 12V12Z" fill="#ADD7FF"/>
<path fill-rule="evenodd" clip-rule="evenodd" d="M6 7.33329C6 5.86053 7.19391 4.66663 8.66667 4.66663H14.2288C14.936 4.66663 15.6143 4.94758 16.1144 5.44767L17.219 6.55224C17.719 7.05234 18 7.73062 18 8.43786V16.6666C18 18.1394 16.8061 19.3333 15.3333 19.3333H8.66667C7.19391 19.3333 6 18.1394 6 16.6666V7.33329ZM16.6667 9.33329V16.6666C16.6667 17.403 16.0697 18 15.3333 18H8.66667C7.93029 18 7.33333 17.403 7.33333 16.6666V7.33329C7.33333 6.59691 7.93029 5.99996 8.66667 5.99996H13.3333V7.33329C13.3333 8.43786 14.2288 9.33329 15.3333 9.33329H16.6667ZM16.5927 7.99996C16.5272 7.81169 16.4198 7.63868 16.2761 7.49505L15.1716 6.39048C15.028 6.24686 14.8549 6.13939 14.6667 6.07392V7.33329C14.6667 7.70148 14.9651 7.99996 15.3333 7.99996H16.5927Z" fill="#2F80ED"/>
</svg>
