<svg width="24" height="24" viewBox="0 0 24 24" fill="none" xmlns="http://www.w3.org/2000/svg">
<path d="M0 12C0 5.37258 5.37258 0 12 0V0C18.6274 0 24 5.37258 24 12V12C24 18.6274 18.6274 24 12 24V24C5.37258 24 0 18.6274 0 12V12Z" fill="#C0E7D1"/>
<path d="M18 16.0155C18 16.3409 17.7362 16.6047 17.4109 16.6047H6.58915C6.26377 16.6047 6 16.3409 6 16.0155V16.0155C6 15.6901 6.26377 15.4264 6.58915 15.4264H6.6V11.3206C6.6 8.38192 9.018 6 12 6C14.982 6 17.4 8.38192 17.4 11.3206V15.4264H17.4109C17.7362 15.4264 18 15.6901 18 16.0155V16.0155ZM7.8 15.4264H16.2V11.3206C16.2 9.03293 14.3196 7.17829 12 7.17829C9.6804 7.17829 7.8 9.03293 7.8 11.3206V15.4264ZM10.831 18.1167C10.4811 17.6894 10.9477 17.1938 11.5 17.1938H12.5C13.0523 17.1938 13.5189 17.6894 13.169 18.1167C13.1352 18.1579 13.0991 18.1975 13.0607 18.2353C12.7794 18.5115 12.3978 18.6667 12 18.6667C11.6022 18.6667 11.2206 18.5115 10.9393 18.2353C10.9009 18.1975 10.8648 18.1579 10.831 18.1167Z" fill="#27AE60"/>
</svg>
