<svg width="20" height="20" viewBox="0 0 20 20" fill="none" xmlns="http://www.w3.org/2000/svg">
<path fill-rule="evenodd" clip-rule="evenodd" d="M9.19058 12.5007C9.65049 12.4834 10.0374 12.8421 10.0548 13.3021C10.0939 14.3389 10.1489 15.0956 10.2029 15.6382C10.2562 16.1725 10.5787 16.494 11.0284 16.549C11.5586 16.6138 12.3065 16.6668 13.3329 16.6668C14.3593 16.6668 15.1073 16.6138 15.6375 16.549C16.0869 16.494 16.4096 16.1724 16.4629 15.6379C16.5632 14.6308 16.6662 12.8908 16.6662 10.0002C16.6662 7.10948 16.5632 5.3695 16.4629 4.36239C16.4096 3.82794 16.0869 3.5063 15.6375 3.45136C15.1073 3.38654 14.3593 3.3335 13.3329 3.3335C12.3065 3.3335 11.5586 3.38654 11.0284 3.45135C10.5787 3.50632 10.2562 3.82781 10.2029 4.36214C10.1489 4.9047 10.0939 5.66144 10.0548 6.69827C10.0374 7.15817 9.65049 7.51693 9.19058 7.49957C8.73067 7.48221 8.37191 7.0953 8.38928 6.63539C8.42945 5.5712 8.48641 4.77969 8.54447 4.19692C8.66651 2.97178 9.52068 1.95658 10.8261 1.797C11.4338 1.72272 12.2503 1.66683 13.3329 1.66683C14.4156 1.66683 15.232 1.72272 15.8397 1.79701C17.1453 1.95661 17.9993 2.97229 18.1213 4.19718C18.2288 5.27573 18.3329 7.07389 18.3329 10.0002C18.3329 12.9264 18.2288 14.7246 18.1213 15.8031C17.9993 17.028 17.1453 18.0437 15.8397 18.2033C15.232 18.2776 14.4156 18.3335 13.3329 18.3335C12.2503 18.3335 11.4338 18.2776 10.8261 18.2033C9.52069 18.0437 8.66651 17.0285 8.54447 15.8034C8.48641 15.2206 8.42945 14.4291 8.38928 13.3649C8.37191 12.905 8.73067 12.5181 9.19058 12.5007Z" fill="#AE4B2B"/>
<path fill-rule="evenodd" clip-rule="evenodd" d="M6.00625 12.3274C6.33168 12.6528 6.33168 13.1805 6.00625 13.5059C5.68081 13.8314 5.15317 13.8314 4.82774 13.5059L1.91107 10.5893C1.58563 10.2638 1.58563 9.73618 1.91107 9.41074L4.82774 6.49408C5.15317 6.16864 5.68081 6.16864 6.00625 6.49408C6.33168 6.81951 6.33168 7.34715 6.00625 7.67259L4.51217 9.16667H12.5003C12.9606 9.16667 13.3337 9.53976 13.3337 10C13.3337 10.4602 12.9606 10.8333 12.5003 10.8333L4.51217 10.8333L6.00625 12.3274Z" fill="#AE4B2B"/>
</svg>
