<svg width="24" height="24" viewBox="0 0 24 24" fill="none" xmlns="http://www.w3.org/2000/svg">
<path d="M0 12C0 5.37258 5.37258 0 12 0V0C18.6274 0 24 5.37258 24 12V12C24 18.6274 18.6274 24 12 24V24C5.37258 24 0 18.6274 0 12V12Z" fill="#FFE1B6"/>
<path fill-rule="evenodd" clip-rule="evenodd" d="M7.86601 15.3771C7.95272 15.4926 7.99961 15.633 7.99964 15.7774L7.99979 16.6178C7.99983 16.8292 8.19406 16.9871 8.40101 16.9441L9.26995 16.7633C9.40527 16.7352 9.54599 16.7498 9.67264 16.8051L9.86732 16.8902C10.5188 17.1748 11.2392 17.3334 12.0002 17.3334C14.9457 17.3334 17.3335 14.9456 17.3335 12C17.3335 9.05452 14.9457 6.66671 12.0002 6.66671C9.05464 6.66671 6.66683 9.05452 6.66683 12C6.66683 13.2022 7.06299 14.308 7.73243 15.1992L7.86601 15.3771ZM9.3335 18.112C10.1501 18.4688 11.052 18.6667 12.0002 18.6667C15.682 18.6667 18.6668 15.6819 18.6668 12C18.6668 8.31814 15.682 5.33337 12.0002 5.33337C8.31826 5.33337 5.3335 8.31814 5.3335 12C5.3335 13.5008 5.82942 14.8858 6.66634 16L6.66668 17.8472C6.66676 18.27 7.05524 18.5859 7.46912 18.4998L9.3335 18.112Z" fill="#F8B046"/>
</svg>
