<svg width="563" height="478" viewBox="0 0 563 478" fill="none" xmlns="http://www.w3.org/2000/svg">
<g clip-path="url(#clip0_20_5247)">
<path d="M473.248 27.5582C463.385 21.3361 452.723 16.338 441.523 12.6858C393.761 -2.71207 338.871 -5.00674 290.239 10.8736C223.819 32.5657 191.303 91.3692 145.856 137.488C145.528 137.82 145.178 138.153 144.817 138.485C128.192 153.786 104.96 157.679 84.5741 166.364C57.9427 177.816 36.4501 198.811 26.8275 225.082C2.9067 290.405 12.5744 371.361 68.6156 419.721C91.8136 439.74 123.482 451.889 154.62 448.533C185.114 445.252 209.385 427.184 238.298 419.849C264.692 413.159 289.912 426.047 313.968 434.797C384.432 460.467 505.38 453.154 544.808 380.958C558.914 355.127 558.214 324.353 545.869 298.114C533.638 272.112 506.667 250.58 499.112 222.894C498.263 220.026 497.792 217.069 497.711 214.091C497.463 180.325 524.478 153.057 526.33 119.731C528.488 81.3756 506.125 48.2102 473.248 27.5582Z" fill="#EEF6FF"/>
<path d="M526.675 383.637C513.265 421.32 476.26 442.496 433.982 453.405C427.2 440.176 433.057 412.34 462.937 419.961C448.158 389.46 426.52 337.618 443.129 332.088C461.951 325.802 476.827 412.716 477.313 415.571C476.843 412.16 460.065 289.265 483.818 290.648C500.499 291.623 488.086 380.962 486.026 408.594C486.225 407.454 498.291 315.4 513.469 319.127C531.708 323.605 498.695 402.742 498.225 403.872C498.68 403.288 512.12 385.416 526.675 383.637Z" fill="#3870C9"/>
<path d="M23.988 391.333C37.3978 429.016 74.4024 450.191 116.681 461.101C123.463 447.872 117.606 420.036 87.7253 427.657C102.505 397.156 124.142 345.314 107.533 339.784C88.7116 333.498 73.8352 420.412 73.3497 423.267C73.8199 419.856 90.5974 296.96 66.8441 298.344C50.1637 299.319 62.5769 388.658 64.6364 416.29C64.4371 415.149 52.3714 323.096 37.1934 326.823C18.9543 331.301 51.9677 410.438 52.4378 411.568C51.983 410.984 38.5426 393.112 23.988 391.333Z" fill="#3870C9"/>
<path d="M485.256 412.063C484.857 409.72 475.357 354.404 462.126 335.109L462.979 334.578C472.178 347.982 479.558 378.488 483.396 396.944C480.002 366.843 474.279 301.592 486.743 288.861C488.343 287.223 490.208 286.454 492.303 286.58C493.034 286.64 493.745 286.844 494.389 287.18C495.033 287.515 495.596 287.975 496.044 288.529C505.493 299.068 500.234 351.529 496.754 386.24L496.642 387.351C500.858 361.629 508.779 321.959 518.325 315.829C518.852 315.454 519.459 315.194 520.102 315.067C520.746 314.94 521.411 314.949 522.051 315.093C522.973 315.331 523.83 315.761 524.558 316.35C525.287 316.94 525.87 317.675 526.267 318.504C533.687 332.4 514.186 383.082 508.442 397.319C512.919 392.082 523.635 380.973 535.057 379.574L535.185 380.549C520.927 382.293 507.65 399.838 507.077 400.584L504.65 403.829L506.183 400.121C507.312 397.397 533.432 334.12 525.332 318.952C524.483 317.364 523.318 316.404 521.755 316.029C521.254 315.918 520.734 315.915 520.232 316.019C519.73 316.124 519.258 316.333 518.852 316.633C507.098 324.19 497.664 385.636 495.058 404.287C494.991 404.774 494.95 405.047 494.94 405.105L493.918 404.989C494.271 400.257 494.94 393.719 495.686 386.142C498.942 353.692 504.374 299.38 495.216 289.158C494.857 288.705 494.402 288.329 493.881 288.055C493.36 287.78 492.784 287.613 492.191 287.565C490.402 287.462 488.843 288.105 487.443 289.538C471.805 305.519 485.624 407.595 486.222 411.937L485.256 412.063Z" fill="#1A1D4E"/>
<path d="M65.4063 419.759C65.8049 417.415 75.3052 362.099 88.5361 342.805L87.6827 342.274C78.4839 355.678 71.1045 386.184 67.2665 404.64C70.6599 374.539 76.3835 309.288 63.9192 296.556C62.3196 294.919 60.4543 294.149 58.359 294.276C57.6278 294.336 56.9176 294.54 56.2736 294.875C55.6295 295.211 55.0658 295.671 54.6182 296.225C45.169 306.764 50.4277 359.225 53.9079 393.935L54.0203 395.046C49.8042 369.325 41.883 329.654 32.3368 323.525C31.8101 323.15 31.2034 322.89 30.5597 322.762C29.916 322.635 29.2509 322.644 28.6112 322.789C27.6887 323.027 26.8326 323.456 26.1039 324.046C25.3751 324.635 24.7917 325.371 24.3951 326.2C16.9748 340.096 36.4762 390.778 42.2203 405.015C37.7436 399.777 27.027 388.668 15.6052 387.27L15.4774 388.245C29.7355 389.989 43.0124 407.534 43.5848 408.28L46.0122 411.525L44.4791 407.817C43.3497 405.093 17.2303 341.816 25.3303 326.648C26.1787 325.06 27.3438 324.1 28.9076 323.725C29.4082 323.614 29.9283 323.611 30.4304 323.715C30.9324 323.82 31.4038 324.029 31.8104 324.329C43.5644 331.886 52.9982 393.331 55.6045 411.983C55.6709 412.47 55.7118 412.743 55.722 412.801L56.7441 412.684C56.3915 407.953 55.722 401.415 54.9759 393.838C51.7206 361.388 46.2882 307.076 55.4461 296.854C55.8053 296.401 56.2601 296.025 56.7813 295.751C57.3025 295.476 57.8783 295.309 58.4714 295.26C60.2601 295.158 61.8188 295.801 63.219 297.234C78.857 313.215 65.0384 415.291 64.4404 419.632L65.4063 419.759Z" fill="#1A1D4E"/>
<path d="M345.016 285.607L344.924 286.581L358.794 287.771L358.885 286.797L345.016 285.607Z" fill="#1A1D4E"/>
<path d="M22.19 297.995L21.106 299.028L25.7097 303.418L26.7938 302.384L22.19 297.995Z" fill="#386CF5"/>
<path d="M28.9562 304.43L27.8721 305.463L32.4758 309.853L33.5599 308.819L28.9562 304.43Z" fill="#386CF5"/>
<path d="M32.4675 297.991L27.8638 302.38L28.9479 303.413L33.5516 299.024L32.4675 297.991Z" fill="#386CF5"/>
<path d="M25.7126 304.429L21.1089 308.818L22.193 309.852L26.7967 305.463L25.7126 304.429Z" fill="#386CF5"/>
<path d="M403.453 148.071L400.024 135.861L412.826 139.131L403.453 148.071ZM402.196 137.932L404.241 145.241L409.862 139.881L402.196 137.932Z" fill="#386CF5"/>
<path d="M349.465 416.985H342.949V418.447H349.465V416.985Z" fill="#3870C9"/>
<path d="M359.022 416.985H352.506V418.447H359.022V416.985Z" fill="#3870C9"/>
<path d="M351.749 410.057H350.216V416.269H351.749V410.057Z" fill="#3870C9"/>
<path d="M351.749 419.168H350.216V425.38H351.749V419.168Z" fill="#3870C9"/>
<path d="M423.518 201.485L422.434 202.519L427.037 206.908L428.121 205.874L423.518 201.485Z" fill="#3870C9"/>
<path d="M430.271 207.927L429.187 208.961L433.79 213.35L434.874 212.317L430.271 207.927Z" fill="#3870C9"/>
<path d="M433.795 201.485L429.188 205.877L430.272 206.911L434.879 202.518L433.795 201.485Z" fill="#3870C9"/>
<path d="M427.037 207.942L422.434 212.331L423.518 213.365L428.121 208.975L427.037 207.942Z" fill="#3870C9"/>
<path d="M93.955 96.3974C92.8431 96.3974 91.7563 96.0831 90.8318 95.4942C89.9074 94.9052 89.1869 94.0682 88.7614 93.0888C88.3359 92.1095 88.2246 91.0319 88.4415 89.9922C88.6584 88.9526 89.1938 87.9976 89.98 87.248C90.7661 86.4985 91.7678 85.988 92.8583 85.7812C93.9487 85.5744 95.079 85.6805 96.1062 86.0862C97.1334 86.4918 98.0114 87.1788 98.629 88.0602C99.2467 88.9416 99.5764 89.9778 99.5764 91.0378C99.5764 91.7417 99.431 92.4386 99.1485 93.0888C98.866 93.7391 98.452 94.3299 97.93 94.8276C97.408 95.3253 96.7882 95.7201 96.1062 95.9894C95.4242 96.2588 94.6932 96.3974 93.955 96.3974ZM93.955 87.1887C93.1464 87.1887 92.3559 87.4173 91.6836 87.8456C91.0113 88.2739 90.4873 88.8826 90.1778 89.5949C89.8684 90.3071 89.7874 91.0909 89.9452 91.847C90.1029 92.6031 90.4923 93.2976 91.0641 93.8428C91.6358 94.3879 92.3643 94.7591 93.1574 94.9095C93.9504 95.0599 94.7725 94.9827 95.5195 94.6877C96.2665 94.3927 96.905 93.8931 97.3543 93.2521C97.8035 92.6111 98.0433 91.8575 98.0433 91.0865C98.0433 90.5747 97.9376 90.0678 97.7321 89.5949C97.5266 89.122 97.2255 88.6923 96.8459 88.3303C96.4662 87.9684 96.0155 87.6812 95.5195 87.4854C95.0235 87.2895 94.4919 87.1887 93.955 87.1887V87.1887Z" fill="#386CF5"/>
<path d="M415.832 358.895C414.72 358.895 413.633 358.58 412.709 357.991C411.784 357.402 411.064 356.565 410.638 355.586C410.213 354.607 410.102 353.529 410.318 352.489C410.535 351.45 411.071 350.495 411.857 349.745C412.643 348.996 413.645 348.485 414.735 348.278C415.826 348.071 416.956 348.178 417.983 348.583C419.01 348.989 419.888 349.676 420.506 350.557C421.124 351.439 421.453 352.475 421.453 353.535C421.453 354.956 420.861 356.32 419.807 357.325C418.753 358.33 417.323 358.895 415.832 358.895V358.895ZM415.832 349.686C415.023 349.686 414.233 349.914 413.561 350.343C412.888 350.771 412.364 351.38 412.055 352.092C411.745 352.804 411.664 353.588 411.822 354.344C411.98 355.1 412.369 355.795 412.941 356.34C413.513 356.885 414.241 357.256 415.034 357.407C415.827 357.557 416.649 357.48 417.396 357.185C418.144 356.89 418.782 356.39 419.231 355.749C419.681 355.108 419.92 354.355 419.92 353.584C419.92 352.55 419.49 351.558 418.723 350.827C417.956 350.096 416.916 349.686 415.832 349.686Z" fill="#386CF5"/>
<path d="M239.49 57.8647H232.974V59.3265H239.49V57.8647Z" fill="#386CF5"/>
<path d="M249.041 57.8647H242.525V59.3265H249.041V57.8647Z" fill="#386CF5"/>
<path d="M241.769 50.9355H240.236V57.1478H241.769V50.9355Z" fill="#386CF5"/>
<path d="M241.769 60.0474H240.236V66.2596H241.769V60.0474Z" fill="#386CF5"/>
<path d="M211.453 375.962L208.596 348.175L205.739 375.962L190.193 377.721L205.739 379.485L208.596 407.267L211.453 379.485L226.994 377.721L211.453 375.962Z" fill="#AE4B2B"/>
<path d="M66.4736 238.214L64.4857 218.856L62.4926 238.214L51.6636 239.442L62.4926 240.67L64.4857 260.033L66.4736 240.67L77.3077 239.442L66.4736 238.214Z" fill="#AE4B2B"/>
<path d="M28.9311 184.865L26.9432 165.507L24.9501 184.865L14.1211 186.093L24.9501 187.32L26.9432 206.683L28.9311 187.32L39.7652 186.093L28.9311 184.865Z" fill="#AE4B2B"/>
<path d="M140.492 90.0039L138.504 70.646L136.511 90.0039L125.682 91.2317L136.511 92.4596L138.504 111.822L140.492 92.4596L151.326 91.2317L140.492 90.0039Z" fill="#AE4B2B"/>
<path d="M479.637 262.861L477.649 243.503L475.656 262.861L464.827 264.089L475.656 265.317L477.649 284.68L479.637 265.317L490.471 264.089L479.637 262.861Z" fill="#AE4B2B"/>
<path d="M118.259 235.309L111.769 227.513L118.259 219.717L124.749 227.513L118.259 235.309ZM113.726 227.513L118.259 232.965L122.792 227.513L118.259 222.061L113.726 227.513Z" fill="#3870C9"/>
<path d="M82.4692 414.044L74.0728 404.265L87.1555 402.219L82.4692 414.044ZM76.9397 405.298L81.9735 411.145L84.7791 404.06L76.9397 405.298Z" fill="#3870C9"/>
<path d="M421.787 56.186C420.676 56.186 419.589 55.8717 418.664 55.2828C417.74 54.6938 417.019 53.8568 416.594 52.8774C416.168 51.8981 416.057 50.8205 416.274 49.7808C416.491 48.7411 417.026 47.7861 417.813 47.0366C418.599 46.287 419.6 45.7766 420.691 45.5698C421.781 45.363 422.912 45.4691 423.939 45.8748C424.966 46.2804 425.844 46.9674 426.462 47.8488C427.079 48.7302 427.409 49.7664 427.409 50.8264C427.409 52.2479 426.817 53.6111 425.762 54.6162C424.708 55.6213 423.278 56.186 421.787 56.186V56.186ZM421.787 46.9772C420.979 46.9772 420.188 47.2058 419.516 47.6342C418.844 48.0625 418.32 48.6712 418.01 49.3835C417.701 50.0957 417.62 50.8795 417.778 51.6356C417.935 52.3917 418.325 53.0862 418.897 53.6314C419.468 54.1765 420.197 54.5477 420.99 54.6981C421.783 54.8485 422.605 54.7713 423.352 54.4763C424.099 54.1813 424.738 53.6817 425.187 53.0407C425.636 52.3997 425.876 51.6461 425.876 50.8751C425.876 49.8413 425.445 48.8499 424.678 48.1189C423.912 47.3879 422.872 46.9772 421.787 46.9772Z" fill="#3870C9"/>
<path d="M321.251 165.5C321.251 165.5 311.468 166.834 310.118 172.168C308.769 177.502 302.359 213.508 299.66 220.509C296.962 227.51 295.612 232.177 297.974 235.845C300.335 239.512 306.07 235.845 309.444 228.843C312.817 221.842 316.191 182.503 318.552 177.169C320.061 173.442 320.971 169.505 321.251 165.5V165.5Z" fill="#FFEDE8" stroke="#263238" stroke-linecap="round" stroke-linejoin="round"/>
<path d="M314.275 203.093C315.88 191.478 317.351 179.889 318.552 177.169C320.061 173.442 320.971 169.505 321.251 165.5C321.251 165.5 311.468 166.834 310.118 172.168C309.349 175.222 306.907 188.357 304.464 200.332C307.478 201.981 310.834 202.925 314.275 203.093V203.093Z" fill="#AE4B2B" stroke="#263238" stroke-linecap="round" stroke-linejoin="round"/>
<path d="M318.552 409.206L319.564 439.211C319.564 439.211 307.419 446.545 301.347 449.212C295.274 451.879 305.732 453.546 309.443 453.546C313.154 453.546 319.901 450.879 323.949 450.879C327.998 450.879 331.709 451.879 331.709 446.212C331.709 440.544 331.034 408.873 331.034 408.873L318.552 409.206Z" fill="#FFEDE8" stroke="#263238" stroke-linecap="round" stroke-linejoin="round"/>
<path d="M331.709 446.208C331.709 445.754 331.709 445.114 331.709 444.354C326.185 445.72 320.541 446.564 314.855 446.875L311.279 444.034C307.824 445.981 304.019 448.035 301.361 449.208C295.288 451.875 305.746 453.542 309.457 453.542C313.168 453.542 319.915 450.875 323.964 450.875C328.012 450.875 331.709 451.875 331.709 446.208Z" fill="#AE4B2B" stroke="#263238" stroke-linecap="round" stroke-linejoin="round"/>
<path d="M351.95 411.204C351.95 411.204 356.335 440.209 359.709 446.543C363.082 452.877 369.155 458.545 371.854 459.545C374.553 460.545 378.938 457.211 375.227 450.21C371.516 443.209 365.107 437.208 363.42 432.874C361.733 428.54 365.107 410.204 365.107 410.204L351.95 411.204Z" fill="#FFEDE8" stroke="#263238" stroke-linecap="round" stroke-linejoin="round"/>
<path d="M371.854 459.543C374.553 460.543 378.938 457.209 375.227 450.208C374.436 448.739 373.562 447.314 372.61 445.941C370.059 446.641 367.415 446.956 364.769 446.874C362.732 446.674 359.831 443.66 357.86 441.313C358.303 443.111 358.922 444.862 359.709 446.541C363.083 452.875 369.155 458.543 371.854 459.543Z" fill="#AE4B2B" stroke="#263238" stroke-linecap="round" stroke-linejoin="round"/>
<path d="M309.78 235.176C309.78 235.176 307.756 253.179 306.407 265.848C304.76 280.345 304.196 294.942 304.72 309.521C305.395 325.857 308.431 362.529 310.455 372.531C312.089 380.772 312.992 389.138 313.154 397.534C313.154 402.202 313.829 410.87 313.829 410.87C316.816 412.546 320.178 413.462 323.612 413.537C326.899 413.532 330.177 413.197 333.395 412.537C333.395 412.537 334.745 384.199 333.395 371.864C332.046 359.529 332.721 316.189 333.058 309.521C333.395 302.853 334.407 281.517 334.407 281.517C334.407 281.517 339.13 314.188 341.829 330.524C344.528 346.86 346.89 413.537 346.89 413.537C350.739 414.58 354.706 415.14 358.697 415.204C362.77 415.075 366.78 414.169 370.505 412.537C370.505 412.537 368.143 360.862 368.143 348.194C368.143 335.525 372.866 276.849 370.167 266.181C367.468 255.513 361.733 237.843 361.733 237.843L309.78 235.176Z" fill="#263238" stroke="#263238" stroke-linecap="round" stroke-linejoin="round"/>
<path d="M327.067 268.06L333.207 284.449" stroke="#FFEDE8" stroke-linecap="round" stroke-linejoin="round"/>
<path d="M355.661 157.83C345.541 154.829 338.456 158.496 338.456 158.496C338.456 158.496 326.311 163.164 321.251 165.497C316.852 167.524 316.218 175.792 315.232 183.834C313.6 187.461 308.958 198.102 308.094 204.077C307.892 205.549 307.988 207.047 308.377 208.482C308.766 209.918 309.441 211.263 310.361 212.438C309.012 219.679 307.865 226.32 307.419 229.507C306.407 236.842 307.419 239.175 314.841 240.509C322.263 241.842 361.734 241.176 362.746 239.842C363.758 238.509 361.734 231.508 367.469 221.506C373.204 211.504 382.987 177.166 382.987 172.832C382.987 168.498 365.782 160.83 355.661 157.83Z" fill="#AE4B2B" stroke="#263238" stroke-linecap="round" stroke-linejoin="round"/>
<path d="M373.056 200L365.418 192.933" stroke="#263238" stroke-linecap="round" stroke-linejoin="round"/>
<path d="M361.126 212.733C361.126 212.733 352.544 216.974 345.378 216.507" stroke="#263238" stroke-linecap="round" stroke-linejoin="round"/>
<path d="M340.143 157.163C340.143 157.163 335.083 160.164 334.745 162.831C334.408 165.498 326.312 173.165 326.312 173.165C326.312 173.165 334.408 169.165 336.77 168.498C339.131 167.831 346.89 161.164 344.529 157.496C342.167 153.829 340.143 157.163 340.143 157.163Z" fill="#AE4B2B" stroke="#263238" stroke-linecap="round" stroke-linejoin="round"/>
<path d="M333.733 147.829C333.733 147.829 337.781 156.164 337.781 160.498V181.501L348.914 156.83C350.263 153.83 350.263 140.161 350.263 140.161C350.263 140.161 338.119 148.496 333.733 147.829Z" fill="#FFEDE8" stroke="#263238" stroke-linecap="round" stroke-linejoin="round"/>
<path d="M324.962 105.49C324.962 105.49 320.914 110.157 320.914 115.491C320.914 120.825 320.833 129.88 318.417 131.827C316.002 133.774 315.462 133.774 316.811 135.828C317.941 137.165 319.48 138.101 321.197 138.495C321.197 138.495 324.908 148.496 327.607 150.497C330.306 152.497 347.174 146.163 347.174 146.163C347.174 146.163 358.981 133.494 356.282 121.492C353.583 109.49 338.456 92.1544 324.962 105.49Z" fill="#FFEDE8" stroke="#263238" stroke-linecap="round" stroke-linejoin="round"/>
<path d="M326.243 127.722C326.243 129.056 325.758 130.123 325.177 130.123C324.597 130.123 324.111 129.042 324.111 127.722C324.111 126.402 324.584 125.309 325.177 125.309C325.771 125.309 326.243 126.389 326.243 127.722Z" fill="#263238"/>
<path d="M323.504 120.508C323.504 120.508 325.326 116.894 329.576 121.108" stroke="#263238" stroke-linecap="round" stroke-linejoin="round"/>
<path d="M324.719 140.336C325.611 140.387 326.504 140.253 327.34 139.943C328.177 139.633 328.939 139.154 329.577 138.536" stroke="#263238" stroke-linecap="round" stroke-linejoin="round"/>
<path d="M351.614 152.833L344.192 163.168C344.839 166.534 346.221 169.719 348.24 172.503C351.614 177.171 353.638 182.838 353.975 180.504C354.313 178.171 353.638 172.837 354.313 169.836C354.987 166.836 358.024 158.501 358.024 158.501L351.614 152.833Z" fill="#AE4B2B" stroke="#263238" stroke-linecap="round" stroke-linejoin="round"/>
<path d="M371.854 191.168C371.854 191.168 377.428 230.667 376.915 235.175C375.795 244.989 390.409 249.843 392.433 243.509C394.457 237.175 386.685 181.393 386.32 178.072C385.619 171.845 379.479 167.298 375.093 166.297" fill="#AE4B2B"/>
<path d="M371.854 191.168C371.854 191.168 377.428 230.667 376.915 235.175C375.795 244.989 390.409 249.843 392.433 243.509C394.457 237.175 386.685 181.393 386.32 178.072C385.619 171.845 379.479 167.298 375.093 166.297" stroke="#263238" stroke-linecap="round" stroke-linejoin="round"/>
<path d="M392.433 243.512C393.674 239.618 391.218 217.028 389.059 199.438C383.662 199.761 378.386 201.148 373.541 203.519C375.133 215.521 377.238 232.323 376.914 235.177C375.794 244.992 390.408 249.846 392.433 243.512Z" fill="#FFEDE8" stroke="#263238" stroke-linecap="round" stroke-linejoin="round"/>
<path d="M392.434 243.51C392.434 243.51 391.084 233.842 386.699 231.842C382.313 229.841 370.843 231.508 363.084 229.841C355.887 228.158 348.545 227.153 341.156 226.841C335.421 226.841 323.276 226.507 322.938 227.841C322.601 229.174 329.348 232.842 335.421 233.508C340.475 233.858 345.548 233.858 350.602 233.508C352.288 233.508 373.542 242.51 380.626 245.51C387.711 248.511 391.084 247.511 392.434 243.51Z" fill="#FFEDE8" stroke="#263238" stroke-linecap="round" stroke-linejoin="round"/>
<path d="M332.991 228.352L339.657 230.779H343.166" stroke="#263238" stroke-linecap="round" stroke-linejoin="round"/>
<path d="M327.661 223.191C323.816 223.191 321.4 222.017 320.631 215.95C320.453 215.101 320.493 214.222 320.748 213.393C321.003 212.563 321.463 211.81 322.088 211.202C324.382 209.109 328.282 209.869 328.714 209.869C329.08 209.966 329.395 210.198 329.594 210.517C329.793 210.837 329.86 211.219 329.782 211.586C329.705 211.953 329.488 212.277 329.176 212.491C328.864 212.704 328.482 212.792 328.107 212.736C327.378 212.589 325.084 212.376 324.058 213.283C323.883 213.456 323.357 213.936 323.546 215.51C324.153 220.337 325.057 220.43 329.753 220.097C329.954 220.07 330.158 220.084 330.353 220.138C330.548 220.193 330.73 220.286 330.887 220.412C331.045 220.538 331.174 220.695 331.268 220.872C331.362 221.05 331.418 221.244 331.432 221.444C331.447 221.644 331.42 221.844 331.354 222.033C331.287 222.222 331.182 222.396 331.045 222.543C330.908 222.691 330.742 222.809 330.557 222.89C330.371 222.972 330.171 223.015 329.969 223.018C329.213 223.138 328.39 223.191 327.661 223.191Z" fill="#FFEDE8" stroke="#263238" stroke-linecap="round" stroke-linejoin="round"/>
<path d="M338.658 226.508H332.478C331.507 226.508 330.571 226.147 329.856 225.498C329.141 224.848 328.7 223.957 328.618 223.001L327.269 207.358H343.867L342.518 223.001C342.436 223.957 341.995 224.848 341.28 225.498C340.565 226.147 339.629 226.508 338.658 226.508V226.508Z" fill="#FFEDE8" stroke="#263238" stroke-linecap="round" stroke-linejoin="round"/>
<path d="M345.122 227.561H325.191L322.695 225.508H347.605L345.122 227.561Z" fill="#FFEDE8" stroke="#263238" stroke-linecap="round" stroke-linejoin="round"/>
<path d="M310.118 220.174C310.118 220.174 300.672 221.841 296.718 228.109C295.706 229.709 295.275 239.177 298.985 242.178C302.696 245.178 308.094 236.844 310.793 232.176C313.492 227.509 316.191 221.841 316.191 221.841L310.118 220.174Z" fill="#FFEDE8" stroke="#263238" stroke-linecap="round" stroke-linejoin="round"/>
<path d="M328.336 95.8223C328.336 95.8223 315.516 95.1555 317.54 106.491C319.565 117.826 336.432 112.491 339.806 122.826C343.18 133.161 334.071 157.165 335.758 158.165C337.445 159.165 358.361 155.498 361.06 151.164C363.758 146.83 368.481 134.828 365.783 117.159C363.084 99.4895 347.565 90.1548 328.336 95.8223Z" fill="#263238" stroke="#263238" stroke-linecap="round" stroke-linejoin="round"/>
<path d="M309.038 218.509C309.038 218.509 310.455 209.894 312.142 207.84C313.829 205.787 324.085 213.348 324.085 213.348C324.085 213.348 325.434 216.015 323.842 216.602C323.292 216.75 322.715 216.767 322.157 216.654C321.599 216.54 321.076 216.299 320.63 215.948C320.63 215.948 320.913 222.509 318.889 224.176C316.865 225.843 309.781 224.51 308.431 222.509C307.082 220.509 309.038 218.509 309.038 218.509Z" fill="#FFEDE8" stroke="#263238" stroke-linecap="round" stroke-linejoin="round"/>
<path d="M313.061 211.643L320.631 215.95" stroke="#263238" stroke-linecap="round" stroke-linejoin="round"/>
<path d="M310.617 215.186C310.617 215.186 315.934 218.587 319.955 218.88" stroke="#263238" stroke-linecap="round" stroke-linejoin="round"/>
<path d="M309.039 218.508C312.211 220.564 315.884 221.738 319.673 221.909" stroke="#263238" stroke-linecap="round" stroke-linejoin="round"/>
<path d="M416.239 234.013C416.239 234.013 409.574 241.331 407.102 243.286C404.63 245.24 405.371 247.195 406.984 248.778C408.596 250.361 412.165 252.559 414.508 254.153C416.851 255.746 419.334 254.758 419.571 254.153C419.807 253.547 415.991 247.195 415.991 247.195L415.626 245.857C417.785 243.514 420.094 241.311 422.538 239.26C425.257 237.136 427.729 235.967 426.612 232.186C425.494 228.404 421.549 227.055 420.065 227.788C418.582 228.521 416.239 234.013 416.239 234.013Z" fill="#FFEDE8" stroke="#263238" stroke-linecap="round" stroke-linejoin="round"/>
<path d="M415.873 184.097C410.597 188.872 406.607 194.87 404.264 201.55C400.685 212.289 400.932 220.224 407.102 225.227C413.272 230.23 418.593 228.478 418.593 228.478L423.408 233.608C420.941 236.881 418.984 240.501 417.604 244.348C415.25 250.817 412.165 252.028 412.047 253.738C411.928 255.448 413.035 257.403 415.991 259.601C418.947 261.8 419.453 262.65 421.549 262.894C423.645 263.139 425.623 262.65 425.848 262.161C426.074 261.673 425.107 259.963 424.494 258.975C423.881 257.987 422.022 252.994 422.022 252.994C426.584 249.372 430.618 245.143 434.007 240.428C438.575 233.598 440.177 228.956 438.822 223.708C437.468 218.461 430.546 214.435 430.546 214.435C430.546 214.435 434.007 205.937 433.878 201.688C433.749 197.439 428.202 188.76 424.494 185.945C420.786 183.13 418.098 182.514 415.873 184.097Z" fill="#FFEDE8" stroke="#263238" stroke-linecap="round" stroke-linejoin="round"/>
<path d="M433.341 216.443C432.461 215.731 431.535 215.078 430.568 214.489C430.568 214.489 434.029 205.991 433.9 201.742C433.771 197.493 428.224 188.814 424.516 185.999C420.807 183.184 418.066 182.462 415.917 184.045C410.64 188.819 406.651 194.817 404.308 201.497C400.728 212.237 400.976 220.172 407.145 225.175C411.606 228.786 415.605 228.903 417.486 228.68C420.012 224.845 425.01 218.451 431.159 216.995C431.895 216.849 432.624 216.664 433.341 216.443V216.443Z" fill="#AE4B2B" stroke="#263238" stroke-linecap="round" stroke-linejoin="round"/>
<path d="M407.092 240.216C411.55 240.216 415.164 236.397 415.164 231.687C415.164 226.976 411.55 223.157 407.092 223.157C402.633 223.157 399.019 226.976 399.019 231.687C399.019 236.397 402.633 240.216 407.092 240.216Z" fill="#3565AE" stroke="#263238" stroke-linecap="round" stroke-linejoin="round"/>
<path d="M403.888 222.911C405.308 221.035 406.549 219.033 407.597 216.931C408.338 215.338 414.39 212.533 414.756 213.149C415.121 213.766 415.003 214.732 413.896 216.198C412.788 217.664 410.434 219.13 410.316 219.491C410.198 219.852 409.446 223.4 409.446 223.4C411.477 221.091 413.629 218.889 415.895 216.804C417.991 215.093 421.076 213.266 421.452 213.617C421.735 214.101 421.904 214.642 421.947 215.2C421.947 215.2 424.784 214.137 425.171 215.561C425.29 215.964 425.303 216.391 425.211 216.801C425.119 217.211 424.924 217.592 424.645 217.908C424.645 217.908 427.773 218.004 427.149 220.447C426.801 221.882 426.125 223.22 425.171 224.356C425.206 226.005 424.837 227.637 424.096 229.115C422.86 231.431 420.872 234.851 417.185 236.19C413.498 237.528 406.189 237.252 403.351 235.701C400.513 234.15 401.996 230.453 402.609 227.649C402.937 226.045 403.364 224.463 403.888 222.911V222.911Z" fill="#FFEDE8" stroke="#263238" stroke-linecap="round" stroke-linejoin="round"/>
<path d="M421.925 215.222C421.925 215.222 416.121 221.691 415.003 222.785C413.885 223.879 413.401 224.495 413.401 224.495" fill="#FFEDE8"/>
<path d="M421.925 215.222C421.925 215.222 416.121 221.691 415.003 222.785C413.885 223.879 413.401 224.495 413.401 224.495" stroke="#263238" stroke-linecap="round" stroke-linejoin="round"/>
<path d="M424.602 217.93L417.722 226.566" stroke="#263238" stroke-linecap="round" stroke-linejoin="round"/>
<path d="M425.128 224.377L421.431 228.892" stroke="#263238" stroke-linecap="round" stroke-linejoin="round"/>
<path d="M413.648 162.152C414.805 159.924 416.48 157.998 418.535 156.532C420.59 155.066 422.967 154.102 425.472 153.718C433.372 152.655 438.317 154.939 441.155 158.232C443.992 161.525 443.38 167.792 443.627 168.855C443.831 169.768 445.11 170.395 445.68 171.075C448.518 174.506 445.487 180.635 442.875 183.407C441.29 185.004 439.379 186.249 437.27 187.06C435.162 187.872 432.902 188.231 430.642 188.113C425.784 187.922 419.624 186.552 416.056 183.089C410.316 177.491 410.036 168.695 413.648 162.152Z" fill="#FFEDE8" stroke="#263238" stroke-linecap="round" stroke-linejoin="round"/>
<path d="M430.32 172.178C430.32 172.178 432.051 169.852 434.147 170.712" stroke="#263238" stroke-linecap="round" stroke-linejoin="round"/>
<path d="M433.212 165.679C432.42 165.485 431.586 165.547 430.832 165.854C430.077 166.162 429.443 166.7 429.02 167.389" stroke="#263238" stroke-linecap="round" stroke-linejoin="round"/>
<path d="M439.091 169.334C439.498 168.915 440.02 168.622 440.593 168.492C441.166 168.362 441.765 168.4 442.316 168.601" stroke="#263238" stroke-linecap="round" stroke-linejoin="round"/>
<path d="M438.35 165.305C438.552 164.961 438.824 164.661 439.148 164.424C439.471 164.186 439.841 164.017 440.233 163.925C440.625 163.834 441.032 163.823 441.429 163.892C441.826 163.961 442.205 164.109 442.542 164.328" stroke="#263238" stroke-linecap="round" stroke-linejoin="round"/>
<path d="M439.586 172.753C439.774 173.076 439.874 173.442 439.874 173.815C439.874 174.188 439.774 174.554 439.586 174.877C439.322 175.33 438.888 175.661 438.379 175.798C437.869 175.935 437.326 175.868 436.866 175.61" stroke="#263238" stroke-linecap="round" stroke-linejoin="round"/>
<path d="M432.792 177.394C433.467 177.908 434.256 178.253 435.095 178.401C435.933 178.549 436.795 178.495 437.608 178.244" stroke="#263238" stroke-linecap="round" stroke-linejoin="round"/>
<path d="M488.741 130.996C488.741 130.996 498.146 130.582 502.532 140.705C506.917 150.828 503.37 157.223 500.446 161.143C497.523 165.062 500.027 166.517 505.047 168.376C510.067 170.235 517.785 183.853 511.937 192.946C506.09 202.039 496.889 200.785 496.889 205.13C496.889 209.475 497.963 217.877 487.698 221.85C477.433 225.823 467.221 220.405 465.974 212.555C464.728 204.705 472.66 187.369 471.822 179.934C470.983 172.498 466.802 165.275 463.674 164.659C460.546 164.042 451.764 165.275 450.926 159.496C450.087 153.717 454.065 142.978 452.388 136.785C450.711 130.592 444.659 126.046 440.897 126.046C437.135 126.046 445.702 119.853 457.021 122.328C468.339 124.803 480.206 131.623 483.968 132.239C487.73 132.855 488.741 130.996 488.741 130.996Z" fill="#E2A692" stroke="#263238" stroke-linecap="round" stroke-linejoin="round"/>
<path d="M432.137 109.942C432.137 109.942 426.493 108.699 419.388 112.618C412.283 116.538 414.164 128.106 419.807 131.622C425.451 135.138 431.717 133.481 433.598 131.824C435.48 130.167 431.298 121.913 434.018 118.015C436.737 114.116 435.888 110.759 432.137 109.942Z" fill="#E2A692" stroke="#263238" stroke-linecap="round" stroke-linejoin="round"/>
<path d="M429.826 124.377C429.407 125.004 428.751 134.086 430.03 136.975C431.309 139.865 434.211 142.552 433.588 145.229C432.964 147.906 431.073 151.22 432.126 152.463C433.179 153.706 437.501 154.322 437.501 154.322C437.501 154.322 437.501 157.827 438.124 158.242C438.646 158.534 439.212 158.742 439.801 158.858C439.801 158.858 439.382 160.1 440.424 160.515C441.163 160.777 441.94 160.917 442.725 160.929C442.725 160.929 445.863 163.202 448.368 162.99C449.41 162.876 450.404 162.492 451.248 161.877C452.092 161.261 452.756 160.436 453.173 159.484C453.796 158.04 457.773 142.552 455.677 133.258C453.581 123.963 441.048 121.488 436.243 121.7C431.438 121.913 429.826 124.377 429.826 124.377Z" fill="#FFEDE8" stroke="#263238" stroke-linecap="round" stroke-linejoin="round"/>
<path d="M437.555 140.088L438.393 142.765" stroke="#263238" stroke-linecap="round" stroke-linejoin="round"/>
<path d="M437.35 142.979C437.35 142.979 439.016 144.041 441.735 141.736" stroke="#263238" stroke-linecap="round" stroke-linejoin="round"/>
<path d="M434.631 136.987C434.631 136.987 433.373 134.299 438.812 134.926" stroke="#263238" stroke-linecap="round" stroke-linejoin="round"/>
<path d="M436.297 110.76C436.297 110.76 431.073 107.042 425.225 113.649C419.378 120.257 425.849 124.601 429.407 126.046C432.965 127.49 439.231 125.419 439.231 125.419C439.231 125.419 443.821 132.653 447.379 133.683C450.937 134.714 453.012 134.926 450.926 142.766C448.841 150.605 446.96 156.575 449.045 161.557C451.13 166.539 456.569 173.124 476.423 168.578C496.276 164.032 499.609 146.271 494.804 136.785C489.999 127.299 482.657 131.623 481.636 124.803C480.615 117.983 482.27 108.869 470.36 103.123C458.451 97.3759 442.574 99.2029 436.297 110.76Z" fill="#E2A692" stroke="#263238" stroke-linecap="round" stroke-linejoin="round"/>
<path d="M502.876 194.539C502.16 195.419 501.286 196.161 500.296 196.727" stroke="#263238" stroke-linecap="round" stroke-linejoin="round"/>
<path d="M463.245 137.921C469.554 137.868 475.595 136.328 481.776 144.061C490.321 154.768 485.194 157.02 484.904 163.5C484.614 169.98 490.042 173.347 497.727 175.61C503.317 177.235 506.499 185.106 504.661 191.118" stroke="#263238" stroke-linecap="round" stroke-linejoin="round"/>
<path d="M448.142 125.441C448.142 125.441 446.723 133.036 455.838 136.701C456.503 136.967 457.185 137.187 457.881 137.36" stroke="#263238" stroke-linecap="round" stroke-linejoin="round"/>
<path d="M456.86 111.344C459.73 112.547 462.034 114.778 463.309 117.59C469.017 128.573 468.157 133.927 482.657 136.71C497.158 139.493 500.608 146.844 499.469 155.013C498.33 163.181 492.063 165.72 495.771 169.661C499.48 173.602 508.595 170.5 510.874 180.358" stroke="#263238" stroke-linecap="round" stroke-linejoin="round"/>
<path d="M447.293 111.961C448.45 111.412 449.681 111.029 450.948 110.825" stroke="#263238" stroke-linecap="round" stroke-linejoin="round"/>
<path d="M462.051 296.355C462.051 296.355 460.665 314.742 459.977 329.04C459.289 343.338 459.805 347.768 461.879 353.217C463.954 358.666 465.663 359.176 467.039 369.724C468.415 380.272 463.083 403.95 462.567 412.968C462.051 421.987 457.397 433.735 457.053 436.805C456.709 439.875 457.225 443.954 455.161 446.163C453.097 448.373 450.862 448.033 443.961 446.673C437.06 445.314 435.523 444.464 429.837 445.483C424.15 446.503 416.938 446.673 414.67 445.144C412.402 443.614 411.574 440.895 413.466 440.714C419.358 439.956 424.976 437.794 429.837 434.415C436.899 429.475 439.822 424.717 442.735 416.357C445.648 407.997 444.455 382.992 444.455 375.843C444.455 368.694 434.287 353.376 432.395 337.198C430.503 321.02 431.879 300.094 431.879 289.705C431.879 279.317 433.427 255.151 433.427 255.151L467.017 251.401C467.017 251.401 471.156 260.6 468.404 273.368C466.723 281.142 464.602 288.816 462.051 296.355V296.355Z" fill="#263238"/>
<path opacity="0.31" d="M462.051 296.354C462.051 296.354 460.665 314.741 459.977 329.039C459.289 343.337 459.805 347.767 461.879 353.216C463.954 358.665 465.663 359.175 467.039 369.723C468.415 380.271 463.083 403.949 462.567 412.967C462.051 421.986 457.397 433.734 457.053 436.804C456.709 439.874 457.225 443.953 455.161 446.162C453.097 448.372 450.862 448.032 443.961 446.672C437.06 445.312 435.523 444.463 429.837 445.482C424.15 446.502 416.938 446.672 414.67 445.143C412.402 443.613 411.574 440.894 413.466 440.713C419.358 439.954 424.976 437.793 429.837 434.414C436.899 429.474 439.822 424.716 442.735 416.356C445.648 407.996 444.455 382.991 444.455 375.842C444.455 368.693 434.287 353.375 432.395 337.197C430.503 321.019 431.879 300.093 431.879 289.704C431.879 279.316 433.427 255.15 433.427 255.15L467.017 251.4C467.017 251.4 471.156 260.599 468.404 273.367C466.723 281.141 464.602 288.815 462.051 296.354V296.354Z" fill="black"/>
<path d="M462.051 296.355C462.051 296.355 460.665 314.742 459.977 329.04C459.289 343.338 459.805 347.768 461.879 353.217C463.954 358.666 465.663 359.176 467.039 369.724C468.415 380.272 463.083 403.95 462.567 412.968C462.051 421.987 457.397 433.735 457.053 436.805C456.709 439.875 457.225 443.954 455.161 446.163C453.097 448.373 450.862 448.033 443.961 446.673C437.06 445.314 435.523 444.464 429.837 445.483C424.15 446.503 416.938 446.673 414.67 445.144C412.402 443.614 411.574 440.895 413.466 440.714C419.358 439.955 424.976 437.794 429.837 434.415C436.899 429.475 439.822 424.717 442.735 416.357C445.648 407.997 444.455 382.992 444.455 375.843C444.455 368.694 434.287 353.376 432.395 337.198C430.503 321.02 431.879 300.094 431.879 289.705C431.879 279.317 433.427 255.151 433.427 255.151L467.017 251.401C467.017 251.401 471.156 260.6 468.404 273.368C466.723 281.142 464.602 288.816 462.051 296.355Z" stroke="#263238" stroke-linecap="round" stroke-linejoin="round"/>
<path d="M416.271 447.63C416.271 447.63 414.841 448.076 416.164 449.5C417.486 450.923 419.152 452.229 428.127 453.44C437.103 454.651 445.412 453.44 450.066 452.994C454.72 452.548 460.03 452.453 462.47 451.242C464.91 450.031 464.459 449.17 464.018 448.289L463.577 447.417C463.577 447.417 465.727 450.041 447.518 450.147C429.31 450.254 422.366 449.383 420.71 448.947C419.055 448.512 416.271 447.63 416.271 447.63Z" stroke="#263238" stroke-linecap="round" stroke-linejoin="round"/>
<path d="M444.971 431.368C441.191 434.48 437.018 437.094 432.556 439.143C424.699 442.861 417.712 444.178 415.723 445.155C413.735 446.133 416.164 448.767 418.83 450.084C421.496 451.401 428.235 452.825 435.555 452.602C442.081 452.336 448.587 451.716 455.043 450.743C460.697 449.978 463.578 450.743 464.126 446.802C464.674 442.861 461.804 436.732 461.138 435.117C460.676 433.773 460.38 432.378 460.257 430.964L444.971 431.368Z" fill="#FFEDE8" stroke="#263238" stroke-linecap="round" stroke-linejoin="round"/>
<path d="M437.393 452.483C435.587 449.297 433.352 445.983 431.911 443.932C431.051 442.711 430.191 441.542 429.396 440.491C427.515 441.266 425.72 441.904 424.086 442.445C425.935 444.793 428.773 448.744 431.105 452.494C432.535 452.579 434.029 452.6 435.555 452.558L437.393 452.483Z" fill="#263238"/>
<path d="M453.226 450.944C455.008 446.377 457.024 441.902 459.267 437.538C460.149 437.39 461.03 437.199 461.944 436.954C461.6 436.115 461.299 435.446 461.138 435.042C461.073 434.893 461.02 434.724 460.966 434.554C454.907 436.007 448.533 435.47 442.811 433.024C442.144 433.523 441.327 434.086 440.36 434.724C444.666 436.851 449.412 437.963 454.226 437.974C454.871 437.974 455.527 437.974 456.193 437.9C453.985 442.257 452.032 446.736 450.346 451.316L453.226 450.944Z" fill="#263238"/>
<path d="M478.508 159.282C478.508 159.282 483.313 160.525 482.27 173.74C481.227 186.954 482.27 195.42 472.241 210.291C466.963 218.099 461.159 224.324 463.309 233.788C465.459 243.253 473.961 250.519 475.004 264.763C476.046 279.008 469.995 284.585 466.233 290.576C462.47 296.567 456.204 315.974 455.365 327.946C454.527 339.917 455.58 345.292 457.042 350.454C458.504 355.617 466.856 364.264 467.694 376.883C468.388 388.934 467.404 401.022 464.771 412.808C462.47 422.931 461.223 432.63 461.223 432.63C458.2 433.643 455.005 434.065 451.818 433.872C445.971 433.671 443.67 432.428 443.67 432.428C443.67 432.428 444.294 404.809 442.595 393.613C440.897 382.417 437.576 370.244 434.437 359.749C431.298 349.254 422.097 332.577 421.678 316.643C421.259 300.71 425.687 274.706 425.687 269.129C425.687 263.552 425.064 252.197 427.773 245.186C430.481 238.175 437.801 213.382 437.801 208.008C437.801 202.633 432.997 197.682 437.393 188.802C441.789 179.922 457.236 165.433 463.921 161.545C470.607 157.657 475.584 157.838 478.508 159.282Z" fill="#263238"/>
<path opacity="0.2" d="M454.903 433.864C457.041 433.774 459.153 433.37 461.17 432.664C461.17 432.664 462.417 422.965 464.717 412.842C467.34 401.054 468.313 388.967 467.609 376.917C466.77 364.319 458.418 355.672 456.957 350.489C455.495 345.305 454.441 339.962 455.28 327.98C456.118 315.998 462.385 296.601 466.147 290.61C469.909 284.619 475.972 279.042 474.918 264.797C473.865 250.553 465.341 243.351 463.309 233.791C461.278 224.23 467.018 218.069 472.295 210.262C482.324 195.39 481.282 186.892 482.324 173.71C483.367 160.528 478.562 159.253 478.562 159.253C477.002 158.532 475.284 158.207 473.564 158.308C470.113 169.854 463.589 195.635 463.589 195.635C463.589 195.635 456.064 217.028 449.894 229.69C443.725 242.352 450.776 251.997 454.753 265.488C458.73 278.978 449.454 290.376 445.917 305.216C442.381 320.055 441.059 334.034 446.799 346.25C452.539 358.466 458.73 365.902 457.849 384.236C457.182 396.866 455.785 420.374 454.903 433.864Z" fill="black"/>
<path d="M478.508 159.282C478.508 159.282 483.313 160.525 482.27 173.74C481.227 186.954 482.27 195.42 472.241 210.291C466.963 218.099 461.159 224.324 463.309 233.788C465.459 243.253 473.961 250.519 475.004 264.763C476.046 279.008 469.995 284.585 466.233 290.576C462.47 296.567 456.204 315.974 455.365 327.946C454.527 339.917 455.58 345.292 457.042 350.454C458.504 355.617 466.856 364.264 467.694 376.883C468.388 388.934 467.404 401.022 464.771 412.808C462.47 422.931 461.223 432.63 461.223 432.63C458.2 433.643 455.005 434.065 451.818 433.872C445.971 433.671 443.67 432.428 443.67 432.428C443.67 432.428 444.294 404.809 442.595 393.613C440.897 382.417 437.576 370.244 434.437 359.749C431.298 349.254 422.097 332.577 421.678 316.643C421.259 300.71 425.687 274.706 425.687 269.129C425.687 263.552 425.064 252.197 427.773 245.186C430.481 238.175 437.801 213.382 437.801 208.008C437.801 202.633 432.997 197.682 437.393 188.802C441.789 179.922 457.236 165.433 463.921 161.545C470.607 157.657 475.584 157.838 478.508 159.282Z" stroke="#263238" stroke-linecap="round" stroke-linejoin="round"/>
<path d="M440.736 257.986C440.736 257.986 441.36 260.663 440.317 269.958C439.275 279.252 437.394 289.163 437.394 290.608" stroke="#263238" stroke-linecap="round" stroke-linejoin="round"/>
<path d="M465.341 260.665L449.464 264.797C449.464 264.797 450.088 275.334 451.969 280.9C453.85 286.466 459.289 286.477 462.417 284.416" stroke="#263238" stroke-linecap="round" stroke-linejoin="round"/>
<path d="M455.645 424.643C455.129 428.201 454.699 430.719 454.699 430.719" stroke="#263238" stroke-linecap="round" stroke-linejoin="round"/>
<path d="M437.167 300.966C437.167 300.966 435.125 313.458 441.252 331.59C447.379 349.723 452.667 365.848 455.107 370.681C457.547 375.514 457.558 408.922 456.741 416.219C456.634 417.143 456.526 418.078 456.408 418.992" stroke="#263238" stroke-linecap="round" stroke-linejoin="round"/>
<path d="M482.27 173.74C483.345 160.525 478.508 159.282 478.508 159.282C475.584 157.838 470.564 157.636 463.879 161.556C457.193 165.475 441.736 179.932 437.35 188.813C432.964 197.693 437.758 202.622 437.758 208.018C437.758 213.414 430.449 238.165 427.73 245.197C426.794 247.864 426.201 250.637 425.967 253.45C432.632 255.747 439.708 256.648 446.745 256.095C455.091 255.681 463.273 253.645 470.822 250.104C467.952 244.188 464.48 239.386 463.298 233.788C461.213 224.292 467.007 218.067 472.284 210.26C482.27 195.42 481.227 186.954 482.27 173.74Z" fill="#3565AE"/>
<path opacity="0.2" d="M451.291 255.714C458.07 254.924 464.672 253.04 470.833 250.137C467.963 244.22 464.491 239.419 463.308 233.821C461.223 224.324 467.017 218.1 472.294 210.292C482.323 195.421 481.281 186.923 482.323 173.74C483.366 160.558 478.561 159.283 478.561 159.283C477.001 158.562 475.283 158.237 473.563 158.338C470.112 169.884 463.588 195.665 463.588 195.665C463.588 195.665 456.063 217.059 449.894 229.721C445.25 239.1 447.959 246.833 451.291 255.714Z" fill="black"/>
<path d="M482.27 173.74C483.345 160.525 478.508 159.282 478.508 159.282C475.584 157.838 470.564 157.636 463.879 161.556C457.193 165.475 441.736 179.932 437.35 188.813C432.964 197.693 437.758 202.622 437.758 208.018C437.758 213.414 430.449 238.165 427.73 245.197C426.794 247.864 426.201 250.637 425.967 253.45C432.632 255.747 439.708 256.648 446.745 256.095C455.091 255.681 463.273 253.645 470.822 250.104C467.952 244.188 464.48 239.386 463.298 233.788C461.213 224.292 467.007 218.067 472.284 210.26C482.27 195.42 481.227 186.954 482.27 173.74Z" stroke="#263238" stroke-linecap="round" stroke-linejoin="round"/>
<path d="M433.653 194.964C433.653 194.964 430.815 189.834 427.73 185.319C424.645 180.804 421.055 180.071 417.97 181.537C416.69 182.09 415.678 183.113 415.149 184.39C414.619 185.667 414.613 187.097 415.132 188.378C415.992 190.938 422.044 198.257 423.903 200.328C425.763 202.4 426.859 204.482 430.191 204.843C433.524 205.204 436.243 202.772 436.125 198.629C436.007 194.486 433.653 194.964 433.653 194.964Z" fill="#AE4B2B" stroke="#263238" stroke-linecap="round" stroke-linejoin="round"/>
<path d="M447.981 175.802C445.908 177.8 443.969 179.929 442.176 182.176C439.951 185.097 439.833 186.318 439.457 186.425C439.081 186.531 432.911 193.744 431.062 195.454C429.213 197.164 427.482 198.874 427.73 200.946C427.977 203.017 431.675 205.704 434.276 204.727C436.877 203.75 440.199 198.747 441.682 195.454C442.738 192.812 443.523 190.072 444.025 187.274C444.025 187.274 446.497 186.425 447.25 184.587C448.002 182.749 448.11 179.34 448.604 178.734C449.099 178.129 450.754 176.174 450.335 175.547C449.916 174.921 448.722 175.197 447.981 175.802Z" fill="#FFEDE8" stroke="#263238" stroke-linecap="round" stroke-linejoin="round"/>
<path d="M413.734 189.016C413.33 188.295 413.1 187.49 413.065 186.666C413.029 185.842 413.189 185.021 413.53 184.268C414.777 181.995 421.259 176.429 421.463 174.357C421.667 172.286 420.635 170.023 421.044 165.477C421.452 160.931 420.635 160.113 418.754 162.588C416.873 165.063 417.077 169.407 417.077 170.023V170.64C417.077 170.64 414.777 168.781 414.573 166.932C414.369 165.084 414.154 161.77 413.498 161.356C412.842 160.941 411.198 161.972 410.563 163.618C410.081 164.941 409.869 166.346 409.94 167.75C409.94 168.993 407.64 170.64 406.812 174.124C406.048 178.069 405.907 182.107 406.393 186.095C406.812 189.399 407.22 191.47 408.274 193.329C409.327 195.188 413.734 189.016 413.734 189.016Z" fill="#FFEDE8" stroke="#263238" stroke-linecap="round" stroke-linejoin="round"/>
<path d="M478.712 173.941C478.712 173.941 476.208 181.377 471.403 191.914C466.598 202.452 446.745 231.971 444.24 232.588C441.736 233.204 431.341 226.395 424.602 217.929C417.862 209.463 406.629 197.279 406.844 194.177C407.059 191.075 411.434 187.368 413.111 187.57C414.788 187.772 420.001 192.945 426.268 198.521C430.179 201.923 434.827 204.394 439.855 205.745L456.989 166.516C456.989 166.516 462.234 157.221 468.683 156.244C475.133 155.267 481.851 159.548 481.013 166.771" fill="#3565AE"/>
<path opacity="0.2" d="M475.735 157.21C473.8 161.789 455.312 205.298 450.722 213.562C445.864 222.294 448.196 224.121 433.341 216.441C427.117 213.254 421.012 210.068 416.014 207.54C418.959 211.077 422.098 214.763 424.613 217.928C431.299 226.426 441.747 233.203 444.251 232.587C446.756 231.971 466.609 202.441 471.414 191.914C476.219 181.387 478.723 173.941 478.723 173.941L481.024 166.718C481.293 164.782 480.924 162.812 479.971 161.099C479.019 159.387 477.533 158.023 475.735 157.21V157.21Z" fill="black"/>
<path d="M439.854 205.745C439.854 205.745 446.121 209.877 445.078 215.858" stroke="#263238" stroke-linecap="round" stroke-linejoin="round"/>
<path d="M478.712 173.941C478.712 173.941 476.208 181.377 471.403 191.914C466.598 202.452 446.745 231.971 444.24 232.588C441.736 233.204 431.341 226.395 424.602 217.929C417.862 209.463 406.629 197.279 406.844 194.177C407.059 191.075 411.434 187.368 413.111 187.57C414.788 187.772 420.001 192.945 426.268 198.521C430.179 201.923 434.827 204.394 439.855 205.745L456.989 166.516C456.989 166.516 462.234 157.221 468.683 156.244C475.133 155.267 481.851 159.548 481.013 166.771" stroke="#263238" stroke-linecap="round" stroke-linejoin="round"/>
<path d="M262.749 142.388C262.749 142.388 265.236 144.215 271.718 140.777C278.199 137.338 277.849 130.583 274.481 128.15C271.114 125.716 270.405 124.339 274.873 121.412C279.341 118.484 275.802 109.105 268.09 106.126C260.377 103.146 257.662 103.06 251.229 105.528C244.797 107.996 234.72 121.533 233.896 130.367C233.073 139.2 240.353 144.483 249.02 145.956C257.686 147.428 262.749 142.388 262.749 142.388Z" fill="#263238" stroke="#263238" stroke-linecap="round" stroke-linejoin="round"/>
<path d="M269.516 218.449C269.516 218.449 270.812 226.053 270.266 231.336C269.72 236.619 269.451 244.578 269.296 249.878C269.141 255.178 270.274 261.553 270.111 265.831C269.948 270.109 269.793 276.025 269.891 278.891C269.989 281.758 272.655 294.905 272.271 306.934C271.888 318.964 265.121 338.918 265.121 338.918C265.121 338.918 262.227 345.552 262.048 351.259C261.868 356.967 258.86 366.849 257.213 370.477C255.566 374.106 246.875 405.631 246.035 413.971C245.196 422.311 246.443 425.412 246.443 425.412C246.443 425.412 251.677 436.212 252.794 437.277C253.911 438.342 258.501 440.542 259.977 441.209C261.453 441.876 261.078 442.88 260.482 443.469C259.887 444.058 256.055 443.72 256.055 443.72C256.055 443.72 249.908 443.504 247.234 443.001C244.56 442.499 241.584 439.537 240.491 437.45C239.399 435.363 230.863 432.21 229.616 429.101C228.368 425.992 231.915 423.039 233.309 421.48C234.703 419.921 237.426 406.93 237.589 401.621C237.752 396.312 237.442 382.022 239.35 370.252C241.258 358.482 243.704 347.951 243.704 347.951C243.704 347.951 243.223 332.63 242.554 329.539C241.886 326.447 227.479 289.604 225.996 281.801C224.512 273.998 221.414 262.653 223.55 255.178C225.686 247.704 230.015 239.078 229.966 234.584C229.917 230.089 226.542 221.393 226.542 221.393C226.542 221.393 224.601 215.816 224.683 213.166C224.765 210.516 224.047 209.061 234.157 205.371C244.266 201.682 262.765 206.185 265.643 206.289C268.521 206.393 269.646 214.378 269.516 218.449Z" fill="#FFEDE8" stroke="#263238" stroke-linecap="round" stroke-linejoin="round"/>
<path d="M266.458 280.563C266.458 280.563 256.05 272.27 267.326 269.506C266.78 274.789 269.215 269.734 269.061 275.034C268.906 280.334 269.061 281.484 270.111 265.832C269.948 270.11 269.793 276.025 269.891 278.892C269.989 281.759 272.655 294.906 272.271 306.935C271.888 318.965 265.121 338.919 265.121 338.919C265.121 338.919 262.227 345.553 262.048 351.26C261.868 356.968 258.86 366.849 257.213 370.478C255.566 374.107 247.348 404.906 246.508 413.247H244.773H243.906H243.038C242.171 413.247 242.171 413.247 242.171 413.247H240.436L238.701 412.325C240.096 410.766 237.426 406.931 237.589 401.622C237.752 396.313 237.442 382.023 239.35 370.253C241.258 358.483 243.704 347.952 243.704 347.952C243.704 347.952 243.223 332.631 242.554 329.539C241.886 326.448 227.479 289.605 225.996 281.802C224.512 273.999 221.414 262.653 223.55 255.179C225.686 247.705 234.413 250.965 234.364 246.47C234.316 241.975 230.895 251.999 230.895 251.999C230.895 251.999 227.344 260.177 227.425 257.527C227.507 254.876 232.445 258.868 242.554 255.178C252.664 251.489 254.906 280.459 257.784 280.563C260.662 280.667 266.589 276.492 266.458 280.563Z" fill="#3565AE" stroke="#263238" stroke-linecap="round" stroke-linejoin="round"/>
<path d="M239.757 262.292C239.757 262.292 242.521 272.122 243.116 277.656C243.711 283.19 250.193 294.917 254.53 302.833C258.867 310.749 264.313 327.472 265.944 335.899C267.574 344.326 269.466 352.354 267.998 356.182C266.531 360.01 261.476 367.58 261.256 368.801C261.036 370.022 243.532 406.752 242.407 412.017C241.281 417.283 239.39 422.523 239.145 424.757C238.901 426.991 244.714 437.202 245.407 439.48C246.1 441.758 249.915 442.944 250.25 444.555C250.584 446.166 246.768 445.04 245.806 445.213C244.844 445.387 239.838 445.612 237.751 444.72C235.664 443.828 233.3 439.662 231.425 438.172C229.549 436.683 227.56 432.725 225.514 430.612C223.467 428.498 222.253 424.982 223.264 422.774C224.274 420.565 229.574 417.69 230.414 415.473C231.253 413.256 233.463 397.823 234.009 392.739C234.555 387.655 233.838 375.062 238.191 364.808C242.545 354.554 246.198 352.051 246.198 352.051C246.198 352.051 246.467 349.609 246.499 348.587C246.532 347.565 230.772 331.188 227.112 325.541C223.451 319.894 215.151 308.601 214.801 307.561C214.45 306.522 205.988 300.72 206.232 286.845C206.477 272.971 219.717 255.866 222.66 253.935C224.383 252.828 225.871 251.354 227.03 249.604" fill="#FFEDE8"/>
<path d="M239.757 262.292C239.757 262.292 242.521 272.122 243.116 277.656C243.711 283.19 250.193 294.917 254.53 302.833C258.867 310.749 264.313 327.472 265.944 335.899C267.574 344.326 269.466 352.354 267.998 356.182C266.531 360.01 261.476 367.58 261.256 368.801C261.036 370.022 243.532 406.752 242.407 412.017C241.281 417.283 239.39 422.523 239.145 424.757C238.901 426.991 244.714 437.202 245.407 439.48C246.1 441.758 249.915 442.944 250.25 444.555C250.584 446.166 246.768 445.04 245.806 445.213C244.844 445.387 239.838 445.612 237.751 444.72C235.664 443.828 233.3 439.662 231.425 438.172C229.549 436.683 227.56 432.725 225.514 430.612C223.467 428.498 222.253 424.982 223.264 422.774C224.274 420.565 229.574 417.69 230.414 415.473C231.253 413.256 233.463 397.823 234.009 392.739C234.555 387.655 233.838 375.062 238.191 364.808C242.545 354.554 246.198 352.051 246.198 352.051C246.198 352.051 246.467 349.609 246.499 348.587C246.532 347.565 230.772 331.188 227.112 325.541C223.451 319.894 215.151 308.601 214.801 307.561C214.45 306.522 205.988 300.72 206.232 286.845C206.477 272.971 219.717 255.866 222.66 253.935C224.383 252.828 225.871 251.354 227.03 249.604" stroke="#263238" stroke-linecap="round" stroke-linejoin="round"/>
<path d="M239.757 262.292C239.757 262.292 242.521 272.122 243.116 277.656C243.711 283.19 250.193 294.917 254.53 302.833C258.867 310.749 264.313 327.472 265.944 335.899C267.574 344.326 269.466 352.354 267.998 356.182C266.531 360.01 261.476 367.58 261.256 368.801C261.036 370.022 243.532 406.752 242.407 412.017C241.304 416.929 240.436 417.85 240.436 417.85C240.449 417.739 240.436 417.85 240.449 417.739C240.449 417.739 240.449 417.739 240.436 416.929H239.569C237.834 416.007 237.834 416.007 237.834 416.007H236.967L233.497 415.086C230.895 414.165 230.895 414.165 230.895 414.165L230.414 415.473C230.414 415.473 233.463 397.823 234.009 392.739C234.555 387.655 233.838 375.062 238.191 364.808C242.545 354.554 246.198 352.051 246.198 352.051C246.198 352.051 246.467 349.609 246.499 348.587C246.532 347.565 230.772 331.188 227.112 325.541C223.451 319.894 215.151 308.601 214.801 307.561C214.45 306.522 205.988 300.72 206.232 286.845C206.477 272.971 219.717 255.866 222.66 253.935C224.383 252.828 225.871 251.354 227.03 249.604" fill="#3565AE"/>
<path d="M239.757 262.292C239.757 262.292 242.521 272.122 243.116 277.656C243.711 283.19 250.193 294.917 254.53 302.833C258.867 310.749 264.313 327.472 265.944 335.899C267.574 344.326 269.466 352.354 267.998 356.182C266.531 360.01 261.476 367.58 261.256 368.801C261.036 370.022 243.532 406.752 242.407 412.017C241.304 416.929 240.436 417.85 240.436 417.85C240.449 417.739 240.436 417.85 240.449 417.739C240.449 417.739 240.449 417.739 240.436 416.929H239.569C237.834 416.007 237.834 416.007 237.834 416.007H236.967L233.497 415.086C230.895 414.165 230.895 414.165 230.895 414.165L230.414 415.473C230.414 415.473 233.463 397.823 234.009 392.739C234.555 387.655 233.838 375.062 238.191 364.808C242.545 354.554 246.198 352.051 246.198 352.051C246.198 352.051 246.467 349.609 246.499 348.587C246.532 347.565 230.772 331.188 227.112 325.541C223.451 319.894 215.151 308.601 214.801 307.561C214.45 306.522 205.988 300.72 206.232 286.845C206.477 272.971 219.717 255.866 222.66 253.935C224.383 252.828 225.871 251.354 227.03 249.604" stroke="#263238" stroke-linecap="round" stroke-linejoin="round"/>
<path d="M240.436 416.93L238.701 423.38L244.773 438.122L249.11 443.651" stroke="#263238"/>
<path d="M246.068 157.608C244.87 159.434 243.843 161.38 243.002 163.419C242.187 165.835 242.016 170.521 242.016 170.521C242.016 170.521 253.308 171.742 256.104 174.704C258.9 177.666 260.759 185.278 261.306 186.318C261.852 187.357 272.467 191.817 275.165 198.442C277.864 205.068 274.766 211.286 273.16 213.477C272.179 214.81 271.042 216.003 269.776 217.028L269.54 218.449C269.54 218.449 248.514 227.109 226.599 221.41C224.691 218.39 223.178 215.11 222.098 211.659C220.72 206.713 218.65 199.083 218.65 199.083C218.65 199.083 211.744 186.595 212.127 179.666C212.51 172.738 217.427 169.854 220.362 168.321C223.297 166.788 224.634 166.84 225.253 166.459C225.873 166.078 233.097 154.689 234.14 151.467C235.184 148.245 246.068 157.608 246.068 157.608Z" fill="#FFEDE8" stroke="#263238" stroke-linecap="round" stroke-linejoin="round"/>
<path d="M234.139 151.465C235.207 148.234 246.05 157.605 246.05 157.605C244.869 159.406 243.853 161.323 243.017 163.33C240.074 163.33 233.707 163.061 228.522 161.598C230.821 157.969 233.544 153.335 234.139 151.465Z" fill="#263238" stroke="#263238" stroke-linecap="round" stroke-linejoin="round"/>
<path d="M256.797 194.148C255.14 192.391 253.237 190.915 251.156 189.774" stroke="#263238" stroke-linecap="round" stroke-linejoin="round"/>
<path d="M272.458 217.063C280.611 222.961 292.139 240.586 289.579 255.82C283.187 294.533 237.001 285.751 231.93 251.082" fill="#FFEDE8"/>
<path d="M272.458 217.063C280.611 222.961 292.139 240.586 289.579 255.82C283.187 294.533 237.001 285.751 231.93 251.082" stroke="#263238" stroke-linecap="round" stroke-linejoin="round"/>
<path d="M272.458 217.063C280.611 222.961 292.139 240.586 289.579 255.82C283.187 294.533 237.001 285.751 231.93 251.082" fill="#FFEDE8"/>
<path d="M272.458 217.063C280.611 222.961 292.139 240.586 289.579 255.82C283.187 294.533 237.001 285.751 231.93 251.082" stroke="#263238" stroke-linecap="round" stroke-linejoin="round"/>
<path d="M289.222 259.046C289.222 259.046 291.301 261.012 291.578 261.878C291.856 262.744 289.353 265.481 288.024 266.737C286.695 267.993 286.165 267.499 287.005 265.55C287.525 264.347 288.133 263.189 288.823 262.086L289.222 259.046Z" fill="#FFEDE8" stroke="#263238" stroke-linecap="round" stroke-linejoin="round"/>
<path d="M289.041 256.226C289.041 256.226 291.356 257.863 291.739 258.686C292.123 259.508 290.003 262.583 288.845 264.012C287.687 265.441 287.109 265.043 287.687 262.99C288.048 261.725 288.5 260.491 289.041 259.301V256.226Z" fill="#FFEDE8" stroke="#263238" stroke-linecap="round" stroke-linejoin="round"/>
<path d="M289.817 253.761C289.817 253.761 292.132 255.407 292.515 256.221C292.899 257.035 290.779 260.118 289.621 261.547C288.463 262.976 287.884 262.578 288.463 260.525C288.823 259.26 289.276 258.026 289.817 256.836V253.761Z" fill="#FFEDE8" stroke="#263238" stroke-linecap="round" stroke-linejoin="round"/>
<path d="M290.028 250.333C290.028 250.333 292.295 252.065 292.661 252.87C293.028 253.676 290.827 256.707 289.629 258.066C288.43 259.426 287.868 259.036 288.503 257.01C288.893 255.756 289.376 254.537 289.947 253.364L290.028 250.333Z" fill="#FFEDE8" stroke="#263238" stroke-linecap="round" stroke-linejoin="round"/>
<path d="M289.694 246.954C289.694 246.954 291.113 246.313 291.716 246.737C292.319 247.161 293.64 249.967 294.048 250.833C294.455 251.7 294.145 252.34 292.833 251.7C292 251.257 291.325 250.54 290.909 249.656L289.996 249.872L289.694 246.954Z" fill="#FFEDE8" stroke="#263238" stroke-linecap="round" stroke-linejoin="round"/>
<path d="M284.28 249.46C284.386 250.525 284.761 251.356 285.095 251.313C285.429 251.27 285.666 250.378 285.56 249.313C285.454 248.247 285.079 247.416 284.745 247.459C284.41 247.502 284.174 248.394 284.28 249.46Z" fill="#FFEDE8" stroke="#263238" stroke-linecap="round" stroke-linejoin="round"/>
<path d="M278.076 198.17C283.905 204.925 283.041 216.097 274.366 219.007C271.007 220.133 268.007 217.881 268.007 217.881L269.515 218.444C269.515 218.444 248.489 227.105 226.574 221.406C224.667 218.386 223.153 215.106 222.074 211.654C221.479 209.507 220.745 206.856 220.117 204.544C224.112 203.444 231.262 200.733 231.425 195.459C231.629 189.024 225.849 171.088 224.414 166.749C224.697 166.693 224.972 166.594 225.229 166.455C225.411 166.274 225.575 166.074 225.718 165.857H226.207C226.207 165.857 229.256 172.699 231.392 178.294C233.529 183.888 238.999 193.017 245.652 195.329C252.305 197.641 260.678 194.03 257.759 189.267C254.84 184.503 242.016 170.534 242.016 170.534C242.016 170.534 243.328 170.681 245.179 170.984L261.305 186.313C261.86 187.353 273.494 192.852 278.076 198.17Z" fill="#3565AE" stroke="#263238" stroke-linecap="round" stroke-linejoin="round"/>
<path d="M231.891 216.158C233.31 218.573 235.267 220.579 237.589 221.999C239.911 223.419 242.527 224.209 245.205 224.299C253.048 224.577 259.529 220.506 260.059 210.746" fill="#3565AE"/>
<path d="M231.891 216.158C233.31 218.573 235.267 220.579 237.589 221.999C239.911 223.419 242.527 224.209 245.205 224.299C253.048 224.577 259.529 220.506 260.059 210.746" stroke="#263238" stroke-linecap="round" stroke-linejoin="round"/>
<path d="M257.416 138.724C255.153 137.246 252.466 136.678 249.842 137.122" stroke="#263238" stroke-linecap="round" stroke-linejoin="round"/>
<path d="M266.148 126.73C266.97 131.49 266.925 136.373 266.018 141.115C265.202 144.986 263.262 146.312 262.887 149.568C262.512 152.824 260.498 157.466 257.645 159.727C254.791 161.987 250.723 167.461 247.144 166.153C243.565 164.845 236.814 158.696 235.73 157.181C234.645 155.665 231.506 149.932 232.468 144.649C233.43 139.366 234.963 136.17 246.263 130.662C257.563 125.154 263.784 122.183 266.148 126.73Z" fill="#FFEDE8" stroke="#263238" stroke-linecap="round" stroke-linejoin="round"/>
<path d="M260.923 142.706C260.923 142.706 258.624 146.482 259.235 150.172C259.61 152.449 259.431 154.259 258.722 154.97C257.409 156.277 254.539 154.97 254.034 153.844" stroke="#263238" stroke-linecap="round" stroke-linejoin="round"/>
<path d="M262.765 141.808C262.765 141.808 264.249 140.942 265.26 143.254" stroke="#263238" stroke-linecap="round" stroke-linejoin="round"/>
<path d="M252.911 136.896C252.911 136.896 255.626 136.114 257.363 138.619" stroke="#263238" stroke-linecap="round" stroke-linejoin="round"/>
<path d="M217.599 189.086C217.599 189.086 210.481 201.695 209.87 202.691C209.258 203.687 195.969 223.018 195.969 223.018C195.969 223.018 207.383 238.33 211.517 241.941C214.028 244.143 216.816 245.962 219.8 247.346C219.8 247.346 228.116 245.614 230.619 245.484C232.804 245.307 234.991 245.81 236.913 246.93C238.804 248.021 241.454 249.13 240.459 250.325C239.465 251.52 238.16 250.039 237.198 249.39C236.347 248.781 235.372 248.398 234.353 248.272C233.538 248.272 230.113 248.523 230.113 248.523C230.113 248.523 236.204 250.377 236.758 251.009C237.312 251.641 240.133 253.78 239.342 254.369C238.922 254.621 238.439 254.727 237.96 254.673C237.48 254.618 237.029 254.406 236.668 254.066C235.918 253.425 234.606 252.334 234.606 252.334L230.602 251.373C230.602 251.373 235.494 254.612 236.603 256.076C237.712 257.539 236.53 258.319 235.959 258.093C235.388 257.868 233.717 256.179 232.771 255.539C231.825 254.898 226.901 252.88 226.901 252.88C226.901 252.88 233.423 258.215 233.635 258.83C233.847 259.445 232.624 260.224 231.695 259.375C230.766 258.527 224.357 254.179 224.357 254.179C224.357 254.179 219.694 255.85 215.544 253.46C213.913 252.499 209.837 250.394 209.837 250.394C209.837 250.394 192.716 239.378 186.936 233.073C181.155 226.768 179.891 225.071 180.527 223.252C181.163 221.433 191.126 196.551 192.797 193.139C194.469 189.726 195.333 186.765 198.765 181.577C202.198 176.389 207.465 167.261 221.251 168.776" fill="#FFEDE8"/>
<path d="M217.599 189.086C217.599 189.086 210.481 201.695 209.87 202.691C209.258 203.687 195.969 223.018 195.969 223.018C195.969 223.018 207.383 238.33 211.517 241.941C214.028 244.143 216.816 245.962 219.8 247.346C219.8 247.346 228.116 245.614 230.619 245.484C232.804 245.307 234.991 245.81 236.913 246.93C238.804 248.021 241.454 249.13 240.459 250.325C239.465 251.52 238.16 250.039 237.198 249.39C236.347 248.781 235.372 248.398 234.353 248.272C233.538 248.272 230.113 248.523 230.113 248.523C230.113 248.523 236.204 250.377 236.758 251.009C237.312 251.641 240.133 253.78 239.342 254.369C238.922 254.621 238.439 254.727 237.96 254.673C237.48 254.618 237.029 254.406 236.668 254.066C235.918 253.425 234.606 252.334 234.606 252.334L230.602 251.373C230.602 251.373 235.494 254.612 236.603 256.076C237.712 257.539 236.53 258.319 235.959 258.093C235.388 257.868 233.717 256.179 232.771 255.539C231.825 254.898 226.901 252.88 226.901 252.88C226.901 252.88 233.423 258.215 233.635 258.83C233.847 259.445 232.624 260.224 231.695 259.375C230.766 258.527 224.357 254.179 224.357 254.179C224.357 254.179 219.694 255.85 215.544 253.46C213.913 252.499 209.837 250.394 209.837 250.394C209.837 250.394 192.716 239.378 186.936 233.073C181.155 226.768 179.891 225.071 180.527 223.252C181.163 221.433 191.126 196.551 192.797 193.139C194.469 189.726 195.333 186.765 198.765 181.577C202.198 176.389 207.465 167.261 221.251 168.776" stroke="#263238" stroke-linecap="round" stroke-linejoin="round"/>
<path d="M267.086 124.868C267.086 124.868 264.591 133.347 258.118 134.594C251.644 135.841 243.981 132.862 242.211 136.101C240.442 139.34 237.181 145.671 233.798 147.031C233.798 147.031 236.61 154.825 234.76 160.654C232.909 166.483 225.563 170.077 224.666 171.818C223.77 173.558 227.618 175.767 228.433 186.437C229.248 197.107 225.653 204.07 221.373 207.456C217.092 210.842 209.698 207.04 209.698 207.04C209.698 207.04 214.785 204.563 211.606 199.428C208.426 194.292 194.542 193.798 194.06 182.548C193.579 171.298 198.422 167.634 197.917 166.136C197.411 164.638 189.691 162.3 191.68 152.028C193.669 141.757 207.986 139.037 209.469 134.932C213.448 124.236 216.938 110.769 226.908 104.568C233.871 100.238 250.348 96.9205 256.609 104.395C256.609 104.395 260.392 108.075 261.134 111.055" fill="#263238"/>
<path d="M267.086 124.868C267.086 124.868 264.591 133.347 258.118 134.594C251.644 135.841 243.981 132.862 242.211 136.101C240.442 139.34 237.181 145.671 233.798 147.031C233.798 147.031 236.61 154.825 234.76 160.654C232.909 166.483 225.563 170.077 224.666 171.818C223.77 173.558 227.618 175.767 228.433 186.437C229.248 197.107 225.653 204.07 221.373 207.456C217.092 210.842 209.698 207.04 209.698 207.04C209.698 207.04 214.785 204.563 211.606 199.428C208.426 194.292 194.542 193.798 194.06 182.548C193.579 171.298 198.422 167.634 197.917 166.136C197.411 164.638 189.691 162.3 191.68 152.028C193.669 141.757 207.986 139.037 209.469 134.932C213.448 124.236 216.938 110.769 226.908 104.568C233.871 100.238 250.348 96.9205 256.609 104.395C256.609 104.395 260.392 108.075 261.134 111.055" stroke="#263238" stroke-linecap="round" stroke-linejoin="round"/>
<path d="M252.02 144.267C252.02 144.528 252.094 144.784 252.23 145.001C252.367 145.218 252.562 145.388 252.79 145.487C253.017 145.587 253.267 145.613 253.509 145.561C253.75 145.509 253.971 145.383 254.145 145.197C254.318 145.012 254.436 144.776 254.483 144.519C254.53 144.262 254.504 143.997 254.409 143.755C254.313 143.514 254.153 143.309 253.947 143.165C253.742 143.021 253.501 142.945 253.255 142.947C253.092 142.947 252.931 142.981 252.78 143.047C252.63 143.114 252.494 143.211 252.379 143.334C252.264 143.457 252.174 143.602 252.112 143.762C252.05 143.922 252.019 144.094 252.02 144.267V144.267Z" fill="#263238"/>
<path d="M251.883 159.488C251.702 159.764 251.567 160.061 251.494 160.34C251.422 160.619 251.415 160.869 251.475 161.057C251.536 161.244 251.66 161.362 251.833 161.395C252.005 161.428 252.219 161.375 252.445 161.242C252.672 161.109 252.902 160.903 253.107 160.648C253.311 160.394 253.48 160.104 253.593 159.815C253.705 159.526 253.756 159.25 253.739 159.024C253.722 158.797 253.638 158.629 253.497 158.542C253.404 158.483 253.289 158.46 253.158 158.476C253.027 158.492 252.882 158.545 252.732 158.633C252.582 158.721 252.429 158.842 252.284 158.988C252.138 159.135 252.002 159.305 251.883 159.488V159.488Z" fill="#263238"/>
<path d="M261.046 147.633C261.046 147.894 261.119 148.15 261.256 148.367C261.393 148.584 261.587 148.753 261.815 148.853C262.043 148.953 262.293 148.978 262.534 148.927C262.775 148.875 262.997 148.748 263.17 148.563C263.344 148.377 263.461 148.141 263.508 147.885C263.555 147.628 263.53 147.362 263.434 147.121C263.339 146.88 263.178 146.675 262.973 146.531C262.767 146.387 262.526 146.311 262.28 146.313C262.117 146.313 261.956 146.347 261.806 146.413C261.656 146.48 261.519 146.577 261.404 146.7C261.29 146.822 261.199 146.968 261.137 147.128C261.076 147.288 261.045 147.46 261.046 147.633V147.633Z" fill="#263238"/>
<path d="M424.792 90.7361C427.417 86.043 428.524 80.6602 427.961 75.3219C427.231 68.3232 423.757 61.8954 418.292 57.4316C412.827 52.9677 405.811 50.8273 398.765 51.4741C395.301 51.7875 391.933 52.7829 388.857 54.4024C385.782 56.0219 383.06 58.233 380.851 60.9073C378.642 63.5816 376.988 66.6656 375.988 69.9798C374.987 73.2941 374.659 76.7724 375.022 80.2125C375.752 87.2113 379.226 93.639 384.691 98.1029C390.156 102.567 397.172 104.707 404.218 104.06C410.113 103.524 415.655 101.021 419.942 96.9585L428.22 97.892L424.792 90.7361Z" fill="white"/>
<path d="M424.791 90.7377L425.044 91.2054L425.73 92.5749L428.323 97.8472L428.414 98.0333L428.205 98.0132L419.921 97.1213L420.061 97.0764C416.749 100.241 412.664 102.489 408.21 103.598C406.927 103.919 405.622 104.145 404.305 104.274C402.92 104.389 401.529 104.408 400.141 104.329C397.169 104.186 394.244 103.535 391.495 102.405C385.356 99.8856 380.349 95.2312 377.409 89.3091C375.821 86.0897 374.9 82.5847 374.701 79.0026C374.503 75.4205 375.031 71.8345 376.254 68.458C378.269 62.8606 382.162 58.1228 387.276 55.0427C389.673 53.5491 392.307 52.4708 395.066 51.8535C397.698 51.2186 400.412 50.9972 403.112 51.1973L404.104 51.2565C404.429 51.2958 404.755 51.3554 405.08 51.4048C405.722 51.5149 406.37 51.5934 406.999 51.7305C408.241 52.0151 409.462 52.383 410.654 52.8317C411.817 53.2628 412.951 53.7663 414.05 54.3392C414.582 54.6402 415.085 54.9646 415.601 55.2722L416.366 55.7347L417.058 56.2969C420.639 58.8363 423.518 62.232 425.431 66.171C427.004 69.3947 427.932 72.8923 428.163 76.4694C428.312 79.1559 428.044 81.8495 427.371 84.4563C426.941 86.0924 426.348 87.6821 425.602 89.202C425.34 89.7268 425.13 90.1075 424.98 90.359C424.91 90.4936 424.832 90.6234 424.745 90.7475C424.788 90.6056 424.849 90.4699 424.927 90.3438C425.06 90.0786 425.257 89.6786 425.494 89.1513C427.324 85.1868 428.132 80.832 427.844 76.481C427.582 72.9576 426.639 69.5183 425.067 66.3515C424.141 64.5138 423.014 62.7837 421.705 61.1927C420.254 59.4957 418.6 57.9802 416.782 56.6793L416.083 56.1587L415.324 55.7009C414.819 55.4024 414.317 55.0882 413.797 54.7963C412.718 54.2358 411.604 53.7457 410.461 53.329C409.289 52.8906 408.086 52.5379 406.862 52.2734C406.244 52.1354 405.611 52.0604 404.975 51.9549C404.66 51.9044 404.34 51.8494 404.021 51.8147L403.049 51.7533C400.397 51.5607 397.732 51.7807 395.148 52.4053C392.444 53.0151 389.864 54.0777 387.518 55.5475C381.991 58.9401 377.935 64.2616 376.144 70.4694C374.354 76.6772 374.958 83.3237 377.838 89.1066C380.721 94.9228 385.626 99.5011 391.645 101.994C394.362 103.093 397.249 103.72 400.181 103.847C401.543 103.931 402.909 103.921 404.269 103.815C405.56 103.7 406.841 103.492 408.102 103.193C412.498 102.123 416.538 99.9328 419.825 96.8381L419.876 96.7765L419.95 96.7896L428.217 97.7705L428.088 97.9274L425.585 92.569L424.955 91.1887C424.887 91.0434 424.832 90.8925 424.791 90.7377Z" fill="#1A1D4E"/>
<path d="M412.162 75.6807C411.999 74.2332 411.392 72.8709 410.424 71.7785C409.513 70.6662 408.272 69.8673 406.878 69.4949C406.135 69.3192 405.364 69.2922 404.61 69.4154C403.856 69.5386 403.134 69.8096 402.486 70.2126C401.722 70.7014 401.088 71.3659 400.638 72.1496C400.243 71.4349 399.695 70.8152 399.032 70.3338C398.407 69.8883 397.697 69.573 396.945 69.4071C396.193 69.2411 395.415 69.2278 394.658 69.368C393.245 69.6674 391.959 70.3947 390.979 71.4498C389.946 72.4868 389.26 73.8146 389.014 75.2523C388.731 77.0847 389.059 78.958 389.946 80.5875C390.986 82.2486 392.41 83.6383 394.101 84.6411C396.84 86.3781 400.457 88.5525 400.457 88.5525C400.457 88.5525 403.64 86.3466 406.481 84.7733C408.234 83.8712 409.741 82.5616 410.875 80.956C411.867 79.3817 412.319 77.5305 412.162 75.6807V75.6807Z" fill="#AE4B2B"/>
<path d="M265.156 98.6661L272.999 96.9305C275.93 99.2865 279.436 100.829 283.16 101.402C286.885 101.975 290.696 101.557 294.206 100.191C297.715 98.8258 300.799 96.5609 303.144 93.6267C305.489 90.6924 307.011 87.1933 307.557 83.4848C308.299 77.9201 306.788 72.2902 303.356 67.8336C299.924 63.3769 294.852 60.4585 289.257 59.7205C283.661 58.9824 278 60.4851 273.518 63.898C269.037 67.3109 266.102 72.3544 265.36 77.919C264.722 82.5291 265.67 87.2182 268.048 91.2259V91.2259L265.156 98.6661Z" fill="white"/>
<path d="M265.157 98.6678L265.36 98.176C265.494 97.8347 265.686 97.3602 265.942 96.747C266.442 95.4857 267.175 93.6459 268.129 91.2622L267.978 91.2912C267.996 91.3074 268.018 91.3165 268.042 91.3165C268.066 91.3165 268.089 91.3074 268.106 91.2912C268.117 91.2749 268.123 91.2558 268.123 91.2362C268.123 91.2166 268.117 91.1975 268.106 91.1812C265.987 87.5614 265.026 83.3862 265.35 79.2102C265.675 75.0342 267.269 71.0551 269.921 67.8017C271.764 65.547 274.053 63.6926 276.646 62.3531C279.239 61.0136 282.081 60.2175 284.995 60.0143C288.203 59.8203 291.414 60.336 294.397 61.5243C295.937 62.1355 297.399 62.9238 298.755 63.8733C299.098 64.1047 299.412 64.3824 299.744 64.637C300.079 64.8881 300.4 65.1585 300.704 65.4469C301.324 66.0121 301.907 66.617 302.449 67.2578C302.722 67.5818 303.031 67.8942 303.263 68.224L303.991 69.2596L304.351 69.7746L304.66 70.3184L305.276 71.4003C305.468 71.7706 305.62 72.1524 305.788 72.5574C305.969 72.9333 306.126 73.3197 306.26 73.7145C306.544 74.4695 306.777 75.2427 306.958 76.0288C307.688 79.1173 307.7 82.3307 306.993 85.4246C306.317 88.3486 304.997 91.0873 303.13 93.4434C299.782 97.6926 294.929 100.509 289.562 101.318C287.296 101.649 284.991 101.626 282.732 101.248C279.186 100.642 275.852 99.1528 273.04 96.9205C273.028 96.9153 273.015 96.9126 273.002 96.9126C272.989 96.9126 272.976 96.9153 272.964 96.9205L267.146 98.2339L265.639 98.581L265.116 98.7083L265.605 98.6157L267.094 98.3091L272.976 97.0883H272.9C275.72 99.3756 279.08 100.909 282.662 101.543C284.949 101.937 287.283 101.97 289.58 101.642C295.038 100.849 299.982 98.0038 303.391 93.6922C305.297 91.2994 306.642 88.5147 307.33 85.5403C308.066 82.3944 308.066 79.1226 307.33 75.9767C307.143 75.1683 306.906 74.3722 306.62 73.593C306.483 73.1987 306.324 72.8124 306.143 72.4359C305.969 72.0541 305.812 71.6607 305.614 71.2788L304.991 70.1738L304.677 69.5952L304.311 69.0687L303.612 67.9926C303.351 67.657 303.031 67.3388 302.781 67.009C302.222 66.3576 301.624 65.7412 300.989 65.1634C300.677 64.8709 300.349 64.5966 300.005 64.3419C299.668 64.0815 299.348 63.798 298.999 63.5608C297.618 62.5957 296.128 61.7938 294.56 61.1714C291.525 59.964 288.258 59.4442 284.995 59.6498C281.919 59.8716 278.925 60.7455 276.216 62.2128C273.708 63.5624 271.496 65.3978 269.712 67.6107C266.628 71.4253 264.982 76.1916 265.058 81.0854C265.119 84.679 266.122 88.1946 267.967 91.2854L268.106 91.1754C268.099 91.1668 268.089 91.1599 268.079 91.1552C268.068 91.1505 268.057 91.148 268.045 91.148C268.034 91.148 268.022 91.1505 268.012 91.1552C268.001 91.1599 267.992 91.1668 267.984 91.1754C267.982 91.1849 267.982 91.1949 267.984 91.2044C267.065 93.6343 266.361 95.5089 265.878 96.7933C265.651 97.4065 265.477 97.8752 265.349 98.2049C265.221 98.5347 265.157 98.6678 265.157 98.6678Z" fill="#1A1D4E"/>
<path d="M280.272 80.6618C280.274 81.1857 280.12 81.6985 279.828 82.135C279.537 82.5716 279.122 82.9123 278.636 83.1138C278.149 83.3154 277.614 83.3687 277.097 83.2671C276.58 83.1654 276.105 82.9134 275.733 82.5429C275.36 82.1724 275.107 81.7003 275.005 81.1863C274.902 80.6723 274.956 80.1398 275.159 79.6562C275.361 79.1726 275.704 78.7597 276.143 78.4701C276.582 78.1804 277.098 78.027 277.624 78.0293C278.327 78.0293 279 78.3067 279.496 78.8004C279.993 79.294 280.272 79.9636 280.272 80.6618Z" fill="#1A1D4E"/>
<path d="M289.138 80.719C289.142 81.2448 288.989 81.76 288.699 82.1992C288.408 82.6384 287.992 82.9816 287.505 83.1852C287.017 83.3888 286.48 83.4435 285.961 83.3425C285.442 83.2415 284.965 82.9892 284.591 82.6178C284.217 82.2465 283.962 81.7727 283.859 81.257C283.757 80.7412 283.811 80.2067 284.014 79.7214C284.218 79.2362 284.562 78.8222 285.003 78.5321C285.444 78.242 285.962 78.0889 286.491 78.0923C287.192 78.0923 287.864 78.3689 288.36 78.8613C288.857 79.3538 289.136 80.0218 289.138 80.719V80.719Z" fill="#1A1D4E"/>
<path d="M297.998 80.7731C298 81.2973 297.846 81.8103 297.554 82.247C297.262 82.6837 296.847 83.0244 296.36 83.2257C295.874 83.4271 295.338 83.4801 294.821 83.378C294.304 83.2759 293.829 83.0232 293.457 82.6522C293.085 82.2811 292.832 81.8084 292.73 81.2941C292.628 80.7797 292.683 80.247 292.886 79.7635C293.09 79.28 293.434 78.8676 293.873 78.5786C294.313 78.2897 294.829 78.1372 295.356 78.1407C296.057 78.1422 296.729 78.4202 297.224 78.9137C297.72 79.4073 297.998 80.076 297.998 80.7731V80.7731Z" fill="#1A1D4E"/>
<path d="M166.468 93.1941L173.609 91.6424C176.906 94.2927 180.994 95.7809 185.232 95.8741C189.471 95.9673 193.621 94.6601 197.032 92.1573C200.444 89.6544 202.925 86.0972 204.086 82.0424C205.248 77.9877 205.025 73.6644 203.451 69.7493C201.878 65.8342 199.044 62.5485 195.393 60.4064C191.741 58.2643 187.478 57.3868 183.272 57.9113C179.065 58.4358 175.152 60.3326 172.145 63.3049C169.138 66.2772 167.208 70.1571 166.655 74.3372C166.08 78.5283 166.941 82.7898 169.099 86.4348V86.4348L166.468 93.1941Z" fill="white"/>
<path d="M166.468 93.1923L166.655 92.7454C166.776 92.4391 166.948 92.0072 167.16 91.4447L169.18 86.4531L169.043 86.4782C169.059 86.4926 169.08 86.5007 169.102 86.5007C169.123 86.5007 169.144 86.4926 169.16 86.4782C169.171 86.4647 169.177 86.4479 169.177 86.4305C169.177 86.4131 169.171 86.3962 169.16 86.3828C167.232 83.0861 166.359 79.2845 166.654 75.4825C166.95 71.6806 168.402 68.0579 170.816 65.0953C172.489 63.0421 174.568 61.3525 176.925 60.1311C179.282 58.9096 181.865 58.1824 184.516 57.9945C187.445 57.8149 190.377 58.2849 193.101 59.3704C194.502 59.9265 195.832 60.6446 197.065 61.5097C197.378 61.7206 197.661 61.9717 197.964 62.2078C198.272 62.4442 198.564 62.7008 198.837 62.9761C199.407 63.4888 199.942 64.0391 200.438 64.6232C200.685 64.9195 200.943 65.2008 201.185 65.5071L201.842 66.4462L202.17 66.9132L202.453 67.4154L203.013 68.4197C203.185 68.7562 203.327 69.1077 203.483 69.4241C203.646 69.7605 203.789 70.1059 203.912 70.4586C204.168 71.1547 204.381 71.8658 204.549 72.5878C205.2 75.3967 205.2 78.3161 204.549 81.1249C203.935 83.7866 202.736 86.2801 201.039 88.4266C197.991 92.2919 193.572 94.8521 188.687 95.5827C186.625 95.8883 184.527 95.868 182.471 95.5224C179.25 94.974 176.22 93.6249 173.664 91.6004C173.653 91.5954 173.641 91.5928 173.629 91.5928C173.616 91.5928 173.604 91.5954 173.593 91.6004L168.321 92.8006L166.973 93.107L166.498 93.2174C166.498 93.2174 166.64 93.2174 166.943 93.1321L168.301 92.8559L173.654 91.746H173.588C176.156 93.8264 179.215 95.2213 182.476 95.7986C184.557 96.1573 186.682 96.1878 188.773 95.889C193.734 95.1467 198.221 92.5428 201.312 88.6124C203.046 86.4332 204.273 83.8981 204.902 81.1902C205.571 78.3274 205.571 75.3502 204.902 72.4874C204.735 71.7513 204.521 71.0267 204.261 70.318C204.134 69.9569 203.988 69.6031 203.821 69.2584C203.66 68.9119 203.523 68.5553 203.347 68.2138L202.776 67.2095L202.488 66.7073L202.155 66.2051L201.483 65.251C201.241 64.9396 200.978 64.6534 200.726 64.3521C200.217 63.7586 199.673 63.1968 199.095 62.6698C198.811 62.4057 198.513 62.1576 198.201 61.9265C197.893 61.6905 197.6 61.4243 197.282 61.2134C196.025 60.3344 194.669 59.6046 193.242 59.039C190.476 57.9385 187.499 57.465 184.526 57.653C181.831 57.8466 179.204 58.5898 176.81 59.8365C174.415 61.0832 172.305 62.8066 170.609 64.8994C167.808 68.3754 166.315 72.7142 166.387 77.1677C166.452 80.4396 167.369 83.639 169.049 86.4531L169.18 86.3526C169.164 86.3382 169.143 86.3301 169.122 86.3301C169.1 86.3301 169.079 86.3382 169.064 86.3526C168.23 88.5672 167.584 90.2747 167.145 91.4397C166.938 91.9971 166.776 92.4441 166.665 92.7303C166.554 93.0166 166.468 93.1923 166.468 93.1923Z" fill="#1A1D4E"/>
<path d="M193.429 74.0918C193.452 72.7378 193.107 71.4027 192.431 70.2271C191.755 69.0515 190.773 68.0789 189.588 67.4116C188.403 66.7443 187.059 66.407 185.697 66.4352C184.336 66.4635 183.007 66.8562 181.851 67.572C180.695 68.2879 179.755 69.3004 179.129 70.503C178.503 71.7056 178.214 73.0538 178.294 74.4057C178.373 75.7577 178.818 77.0633 179.58 78.1852C180.343 79.3071 181.396 80.2038 182.628 80.7808C182.628 81.6647 182.628 82.659 182.628 82.659L189.263 82.6891C189.263 82.6891 189.308 81.6346 189.324 80.6804C190.551 80.0632 191.583 79.1218 192.307 77.9596C193.031 76.7973 193.419 75.4591 193.429 74.0918V74.0918Z" fill="#AE4B2B"/>
<path d="M186.828 82.6491C186.828 82.6491 186.828 82.619 186.828 82.5537C186.828 82.4884 186.828 82.4031 186.863 82.2876C186.894 82.0515 186.934 81.705 187.005 81.2832C187.075 80.8614 187.166 80.2788 187.313 79.6662C187.475 78.9552 187.709 78.2622 188.01 77.5972C188.184 77.2065 188.395 76.8332 188.641 76.4824C188.769 76.2929 188.943 76.1377 189.146 76.0304C189.26 75.9774 189.384 75.952 189.51 75.9564C189.636 75.9608 189.758 75.9947 189.868 76.0555C189.981 76.122 190.065 76.2274 190.105 76.3518C190.145 76.4787 190.132 76.6159 190.07 76.7335C189.944 76.9676 189.736 77.1467 189.484 77.2356C189.221 77.3204 188.944 77.3524 188.669 77.3297C188.393 77.307 188.125 77.2301 187.88 77.1035C187.635 76.9769 187.417 76.803 187.24 76.5921C187.063 76.3811 186.93 76.1373 186.848 75.8747C186.754 75.5962 186.74 75.297 186.808 75.011C186.848 74.8612 186.939 74.7297 187.065 74.6383C187.19 74.547 187.344 74.5012 187.5 74.5088C187.58 74.5191 187.658 74.5487 187.724 74.595C187.791 74.6413 187.846 74.7031 187.883 74.775C187.957 74.9157 187.976 75.0779 187.939 75.2319C187.846 75.5294 187.658 75.7885 187.404 75.9701C187.161 76.1712 186.879 76.3198 186.576 76.4063C186.272 76.4927 185.954 76.5152 185.641 76.4723C185.329 76.4227 185.032 76.2986 184.778 76.1106C184.524 75.9226 184.32 75.6763 184.182 75.3926C184.111 75.2535 184.071 75.1012 184.063 74.9455C184.055 74.7898 184.08 74.6342 184.136 74.4887C184.165 74.4136 184.21 74.3456 184.267 74.2893C184.325 74.2329 184.394 74.1896 184.47 74.1623C184.546 74.1364 184.626 74.1266 184.706 74.1335C184.786 74.1404 184.864 74.1639 184.934 74.2025C185.07 74.2799 185.181 74.3951 185.252 74.5339C185.316 74.6679 185.354 74.8128 185.364 74.9608C185.39 75.3871 185.292 75.812 185.08 76.1837C184.869 76.5555 184.553 76.8581 184.172 77.0548C183.691 77.3052 183.136 77.3782 182.606 77.2607C182.346 77.2188 182.107 77.0936 181.925 76.9042C181.836 76.807 181.784 76.6823 181.778 76.5514C181.772 76.4205 181.811 76.2914 181.889 76.1861C181.932 76.1376 181.983 76.0983 182.042 76.0707C182.1 76.043 182.163 76.0276 182.228 76.0254C182.353 76.0155 182.479 76.0398 182.591 76.0957C182.794 76.2107 182.955 76.3865 183.051 76.5979C183.238 76.9996 183.389 77.3963 183.556 77.773C184.157 79.2795 184.566 80.5149 184.864 81.3736C185.005 81.8005 185.106 82.1369 185.177 82.378L185.258 82.6391C185.258 82.6943 185.258 82.7245 185.258 82.7245L185.227 82.6391L185.141 82.383C185.061 82.157 184.949 81.8205 184.808 81.3786C184.515 80.5249 184.081 79.2896 183.475 77.788C183.323 77.4164 183.167 77.0197 182.97 76.623C182.883 76.4216 182.732 76.2541 182.541 76.1459C182.445 76.0897 182.333 76.0666 182.222 76.0802C182.112 76.0939 182.009 76.1434 181.93 76.2212C181.866 76.3139 181.836 76.425 181.843 76.537C181.85 76.6489 181.895 76.7552 181.97 76.8389C182.142 77.0135 182.364 77.1295 182.606 77.1703C183.119 77.281 183.655 77.21 184.121 76.9695C184.597 76.7087 184.957 76.2806 185.131 75.7693C185.224 75.5086 185.262 75.2316 185.242 74.9557C185.243 74.818 185.208 74.6823 185.141 74.5618C185.074 74.4413 184.977 74.3401 184.859 74.2677C184.8 74.2339 184.735 74.2131 184.668 74.2071C184.601 74.201 184.533 74.2097 184.47 74.2326C184.406 74.2573 184.349 74.2945 184.3 74.3419C184.251 74.3894 184.213 74.4462 184.187 74.5088C184.137 74.6426 184.115 74.7852 184.123 74.9278C184.131 75.0704 184.168 75.2098 184.232 75.3374C184.365 75.6071 184.561 75.8412 184.804 76.0203C185.046 76.1994 185.328 76.3182 185.626 76.3669C185.928 76.4047 186.234 76.3796 186.525 76.2931C186.817 76.2066 187.086 76.0607 187.318 75.8647C187.555 75.6937 187.731 75.453 187.823 75.1767C187.852 75.0426 187.834 74.9026 187.772 74.78C187.742 74.7209 187.698 74.6701 187.643 74.6324C187.589 74.5947 187.525 74.5712 187.459 74.564C187.323 74.554 187.188 74.5952 187.081 74.6795C186.977 74.7667 186.902 74.8819 186.863 75.011C186.801 75.2807 186.815 75.5622 186.904 75.8245C187.065 76.3304 187.421 76.7521 187.894 76.9977C188.367 77.2433 188.919 77.2927 189.429 77.1352C189.661 77.0577 189.855 76.8964 189.974 76.6832C190.025 76.5834 190.036 76.4679 190.004 76.3604C189.972 76.2529 189.9 76.1617 189.802 76.1057C189.704 76.0511 189.595 76.0203 189.482 76.016C189.37 76.0116 189.258 76.0338 189.156 76.0806C188.953 76.1796 188.78 76.3282 188.651 76.5125C188.411 76.8588 188.202 77.2251 188.025 77.6073C187.724 78.2678 187.487 78.9556 187.318 79.6612C187.166 80.2839 187.07 80.8262 186.995 81.2732C186.919 81.7201 186.873 82.0616 186.833 82.2775C186.833 82.393 186.803 82.4834 186.793 82.5487L186.828 82.6491Z" fill="#1A1D4E"/>
<path d="M188.687 83.8922L182.996 83.8671C182.883 83.8671 182.775 83.8228 182.694 83.7439C182.614 83.6649 182.568 83.5576 182.567 83.4453C182.57 83.3333 182.616 83.2268 182.696 83.1481C182.776 83.0694 182.884 83.0247 182.996 83.0234L188.692 83.0536C188.748 83.0529 188.804 83.0633 188.855 83.0843C188.907 83.1053 188.954 83.1363 188.994 83.1756C189.033 83.2149 189.065 83.2617 189.086 83.3132C189.107 83.3647 189.117 83.4198 189.117 83.4754C189.117 83.531 189.105 83.586 189.084 83.6373C189.062 83.6885 189.03 83.7349 188.99 83.7737C188.95 83.8126 188.903 83.8431 188.851 83.8634C188.799 83.8838 188.743 83.8935 188.687 83.8922V83.8922Z" fill="#1A1D4E"/>
<path d="M188.687 84.2573H182.991C182.879 84.2573 182.771 84.3018 182.691 84.3809C182.612 84.46 182.567 84.5673 182.567 84.6792C182.567 84.791 182.612 84.8983 182.691 84.9774C182.771 85.0565 182.879 85.101 182.991 85.101H183.637L184.461 86.6577C184.508 86.7489 184.581 86.8247 184.671 86.8762C184.76 86.9278 184.862 86.953 184.966 86.949H186.985C187.089 86.9524 187.191 86.9269 187.28 86.8754C187.369 86.8239 187.442 86.7485 187.49 86.6577L188.303 85.116H188.687C188.8 85.116 188.908 85.0716 188.987 84.9925C189.067 84.9134 189.111 84.8061 189.111 84.6942C189.111 84.5823 189.067 84.4751 188.987 84.3959C188.908 84.3168 188.8 84.2724 188.687 84.2724V84.2573Z" fill="#1A1D4E"/>
<g opacity="0.2">
<path opacity="0.2" d="M179.684 71.0665C179.365 71.743 179.182 72.4747 179.144 73.2208C179.11 73.8205 179.178 74.4216 179.346 74.9986C179.457 75.3871 179.627 75.7563 179.851 76.0933C180.012 76.3293 180.139 76.4348 180.194 76.4047C180.25 76.3745 180.108 75.782 180.007 74.873C179.853 73.7042 180.042 72.516 180.551 71.4514C181.059 70.3868 181.867 69.491 182.876 68.872C183.648 68.3698 184.224 68.1689 184.194 68.0333C184.194 67.973 184.017 67.9479 183.729 67.973C183.326 68.025 182.933 68.1367 182.562 68.3045C181.311 68.8603 180.299 69.8388 179.704 71.0665H179.684Z" fill="white"/>
</g>
<g opacity="0.2">
<path opacity="0.2" d="M186.95 67.9975C186.95 67.877 186.885 67.7414 186.713 67.6359C186.492 67.5219 186.247 67.4624 185.998 67.4624C185.75 67.4624 185.505 67.5219 185.284 67.6359C185.107 67.7414 185.021 67.872 185.041 67.9975C185.087 68.2486 185.511 68.3792 185.991 68.3842C185.991 68.3641 186.738 68.2837 186.95 67.9975Z" fill="white"/>
</g>
<path d="M187.358 86.7738C187.226 86.7414 187.097 86.7011 186.97 86.6533C186.654 86.5671 186.327 86.5265 186 86.5328C185.675 86.5397 185.353 86.5973 185.046 86.7035C184.919 86.7577 184.789 86.803 184.657 86.8391C184.766 86.7545 184.889 86.6883 185.02 86.6433C185.332 86.5175 185.664 86.4494 186 86.4424C186.343 86.4314 186.685 86.4824 187.01 86.593C187.134 86.6375 187.251 86.6983 187.358 86.7738V86.7738Z" fill="#3870C9"/>
<path d="M188.288 85.1167C188.288 85.1167 187.278 85.1569 185.99 85.1519C184.702 85.1469 183.692 85.1218 183.692 85.0967C183.692 85.0716 184.702 85.0565 185.99 85.0615C187.278 85.0665 188.288 85.0716 188.288 85.1167Z" fill="#3870C9"/>
<path d="M187.929 85.7803C187.745 85.8171 187.557 85.8356 187.369 85.8355C187.02 85.8355 186.54 85.8707 186.01 85.8757C185.48 85.8807 185 85.8757 184.652 85.8757C184.464 85.8784 184.276 85.8633 184.091 85.8305C184.278 85.8193 184.465 85.8193 184.652 85.8305H186.01H187.369C187.554 85.8033 187.742 85.7866 187.929 85.7803V85.7803Z" fill="#3870C9"/>
<path d="M497.642 61.1597L495.654 41.8018L493.661 61.1597L482.832 62.3875L493.661 63.6153L495.654 82.9781L497.642 63.6153L508.476 62.3875L497.642 61.1597Z" fill="#AE4B2B"/>
<path d="M161.407 170.922C161.407 170.922 166.642 171.229 168.491 177.923C170.34 184.617 171.19 214.742 170.947 218.396C170.704 222.05 173.106 229.064 175.562 231.184C178.018 233.305 182.647 235.438 180.191 236.959C177.735 238.479 173.444 239.092 167.56 235.438C161.677 231.784 158.937 224.49 157.709 217.182C156.481 209.874 158.937 194.659 156.171 185.177C153.405 175.696 157.399 170.922 161.407 170.922Z" fill="#FFEDE8" stroke="#263238" stroke-linecap="round" stroke-linejoin="round"/>
<path d="M176.642 443.473C176.662 444.632 176.318 445.769 175.657 446.727C174.672 447.714 152.555 445.753 150.247 445.753C147.94 445.753 147.616 443.086 147.616 441.513C147.616 439.939 176.642 443.473 176.642 443.473Z" fill="#263238" stroke="#263238" stroke-linecap="round" stroke-linejoin="round"/>
<path d="M172.687 322.508C172.687 322.508 167.735 344.031 166.088 350.872C164.442 357.713 167.074 375.329 164.105 390.651C161.136 405.974 158.505 426.19 158.505 429.124C158.505 432.058 177.302 442.166 176.641 443.473C175.98 444.78 163.147 443.139 160.151 442.819C157.155 442.499 152.23 443.139 149.922 442.166C147.615 441.192 149.585 436.298 149.922 433.684C151.154 422.857 151.816 411.974 151.906 401.079C151.906 386.411 149.207 365.874 150.246 358.7C150.933 352.531 151.266 346.329 151.245 340.124C151.245 339.137 148.546 322.508 148.546 322.508C148.546 322.508 163.12 321.214 172.687 322.508Z" fill="#FFEDE8" stroke="#263238" stroke-linecap="round" stroke-linejoin="round"/>
<path d="M163.781 433.683L160.151 442.817L166.413 444.124L170.043 437.923L163.781 433.683Z" fill="#AE4B2B" stroke="#263238" stroke-linecap="round" stroke-linejoin="round"/>
<path d="M103.286 432.098C103.286 432.098 99.1167 442.219 98.7658 445.82C98.415 449.42 100.682 453.821 105.189 451.82C109.696 449.82 110.924 435.191 110.924 431.817C110.924 428.444 106.404 426.097 103.286 432.098Z" fill="#263238" stroke="#263238" stroke-linecap="round" stroke-linejoin="round"/>
<path d="M128.817 326.095C128.817 326.095 140.369 345.658 138.385 349.899C136.401 354.14 127.495 362.608 123.541 376.303C119.587 389.999 107.348 422.283 104.082 431.405C100.817 440.526 97.8076 449.007 103.084 450.314C108.36 451.621 111.329 431.085 112.989 426.511C114.648 421.937 139.707 387.398 145.375 378.583C151.042 369.769 157.52 353.486 157.52 347.912C157.52 342.338 154.227 323.788 154.227 323.788C154.227 323.788 140.018 320.561 128.817 326.095Z" fill="#FFEDE8" stroke="#263238" stroke-linecap="round" stroke-linejoin="round"/>
<path d="M101.101 439.551L109.346 441.511L110.992 436.297L102.41 434.017L101.101 439.551Z" fill="#AE4B2B" stroke="#263238" stroke-linecap="round" stroke-linejoin="round"/>
<path d="M121.545 233.508C112.729 244.805 107.455 258.407 106.377 272.634C104.717 296.104 127.482 328.709 127.482 328.709C127.482 328.709 160.152 322.841 173.012 327.375C173.012 327.375 182.917 300.638 178.949 275.541C176.27 259.777 170.68 244.634 162.459 230.867L121.545 233.508Z" fill="#AE4B2B" stroke="#263238" stroke-linecap="round" stroke-linejoin="round"/>
<path d="M143.904 270.647C143.904 270.647 151.434 292.998 155.833 313.481" stroke="#FFEDE8" stroke-linecap="round" stroke-linejoin="round"/>
<path d="M145.78 261.308C145.78 261.308 149.559 272.483 151.434 279.311" stroke="#FFEDE8" stroke-linecap="round" stroke-linejoin="round"/>
<path d="M151.853 103.073C151.853 103.073 155.901 102.459 159.868 107.633C163.836 112.807 163.566 120.969 165.104 123.756C166.643 126.543 168.181 126.503 168.491 128.623C168.802 130.743 164.443 132.624 164.443 132.624C164.443 132.624 163.525 142.358 161.677 145.959C159.828 149.56 155.51 149.613 153.351 149C151.192 148.386 146.604 146.572 146.604 146.572C146.604 146.572 145.065 159.348 145.686 162.095C146.307 164.842 157.696 168.763 160.165 170.003C162.635 171.243 164.78 174.87 163.849 180.671C162.918 186.472 165.388 192.539 166.008 196.18C166.629 199.821 170.327 205.928 167.236 211.702C164.146 217.477 162.001 219.01 162.001 221.144C162.001 223.277 164.47 231.812 162.932 233.919C161.393 236.026 127.847 236.653 124.433 236.653C121.018 236.653 119.21 228.745 118.589 226.918C117.969 225.091 110.884 197.407 108.428 190.713C105.972 184.018 105.662 171.23 111.505 168.803C117.348 166.375 128.44 164.228 130.91 157.534C132.738 152.146 133.16 146.39 132.138 140.798C131.517 138.971 124.743 136.544 122.894 118.582C121.045 100.619 141.395 93.2844 151.853 103.073Z" fill="#FFEDE8" stroke="#263238" stroke-linecap="round" stroke-linejoin="round"/>
<path d="M161.906 138.411C161.839 139.638 161.231 140.598 160.557 140.558C159.882 140.518 159.369 139.505 159.437 138.278C159.504 137.051 160.111 136.091 160.786 136.131C161.461 136.171 161.974 137.185 161.906 138.411Z" fill="#263238"/>
<path d="M159.855 120.825L161.352 124.825C160.917 125.211 160.402 125.499 159.843 125.67C159.284 125.84 158.694 125.889 158.114 125.812" stroke="#263238" stroke-linecap="round" stroke-linejoin="round"/>
<path d="M154.916 119.101C154.916 119.101 157.615 116.434 160.665 116.634" stroke="#263238" stroke-linecap="round" stroke-linejoin="round"/>
<path d="M134.62 130.757C135.524 130.934 136.456 130.91 137.348 130.685C138.241 130.46 139.072 130.041 139.779 129.458C140.487 128.875 141.053 128.143 141.438 127.316C141.822 126.488 142.015 125.587 142.001 124.676C142.622 117.369 143.661 112.581 149.815 111.981C155.968 111.381 155.86 112.501 162.634 110.368C169.408 108.234 172.795 94.2451 165.711 90.2845C158.626 86.3239 151.852 93.0316 147.237 95.1519C142.622 97.2723 136.766 89.9778 129.991 94.5518C123.217 99.1259 125.687 104.9 123.528 108.541C121.369 112.181 116.133 118.582 119.223 125.877C122.313 133.171 130.923 144.133 134.067 141.706C137.211 139.279 134.62 130.757 134.62 130.757Z" fill="#D28F79" stroke="#263238" stroke-linecap="round" stroke-linejoin="round"/>
<path d="M142.069 117.089L134.539 116.155L134.31 118.942L141.597 120.343L142.069 117.089Z" fill="#FFEDE8" stroke="#263238" stroke-linecap="round" stroke-linejoin="round"/>
<path d="M139.843 133.797C139.843 133.797 138.007 128.329 134.31 128.623C130.612 128.916 132.461 136.851 135.538 139.891C138.615 142.932 142.002 138.664 142.002 138.664" fill="#FFEDE8"/>
<path d="M139.843 133.797C139.843 133.797 138.007 128.329 134.31 128.623C130.612 128.916 132.461 136.851 135.538 139.891C138.615 142.932 142.002 138.664 142.002 138.664" stroke="#263238" stroke-linecap="round" stroke-linejoin="round"/>
<path d="M121.679 126.812C121.679 126.812 116.132 123.465 113.056 126.812C109.979 130.16 110.6 140.801 115.525 143.842C116.632 144.602 117.935 145.035 119.282 145.088C120.629 145.141 121.963 144.813 123.127 144.141C124.291 143.47 125.237 142.484 125.853 141.299C126.469 140.114 126.73 138.78 126.604 137.454C126.587 135.438 126.139 133.448 125.29 131.614C124.441 129.78 123.211 128.144 121.679 126.812V126.812Z" fill="#D28F79" stroke="#263238" stroke-linecap="round" stroke-linejoin="round"/>
<path d="M111.275 170.321C111.275 170.321 104.811 170.015 102.045 177.923C99.2785 185.83 89.4141 244.266 90.0349 247.613C90.6556 250.96 101.734 245.786 102.962 243.052C104.19 240.319 116.457 196.792 116.457 196.792" fill="#FFEDE8"/>
<path d="M111.275 170.321C111.275 170.321 104.811 170.015 102.045 177.923C99.2785 185.83 89.4141 244.266 90.0349 247.613C90.6556 250.96 101.734 245.786 102.962 243.052C104.19 240.319 116.457 196.792 116.457 196.792" stroke="#263238" stroke-linecap="round" stroke-linejoin="round"/>
<path d="M187.127 234.8C187.127 234.8 188.841 230.586 188.476 228.892C188.112 227.199 185.13 228.119 184.428 230.226C183.726 232.333 183.969 233.146 184.644 233.146C185.319 233.146 187.127 234.8 187.127 234.8Z" fill="#FFEDE8" stroke="#263238" stroke-linecap="round" stroke-linejoin="round"/>
<path d="M169.719 234.294C170.724 235.382 171.806 236.398 172.958 237.334C175.009 239.028 179.449 239.534 179.449 239.534C179.449 239.534 174.834 235.534 173.983 234.64C173.133 233.747 169.719 234.294 169.719 234.294Z" fill="#FFEDE8" stroke="#263238" stroke-linecap="round" stroke-linejoin="round"/>
<path d="M186.843 234.227C186.843 234.227 185.494 238.348 184.145 239.562C182.795 240.775 178.342 239.388 175.616 237.535C172.89 235.681 171.568 233.814 173.052 233.814C174.537 233.814 186.843 234.227 186.843 234.227Z" fill="#FFEDE8" stroke="#263238" stroke-linecap="round" stroke-linejoin="round"/>
<path d="M175.859 234.467C178.13 236.661 180.652 238.586 183.375 240.201" stroke="#263238" stroke-linecap="round" stroke-linejoin="round"/>
<path d="M181.094 233.305C181.094 233.305 182.862 237.666 184.913 238.639" stroke="#263238" stroke-linecap="round" stroke-linejoin="round"/>
<path d="M171.999 229.947C168.234 229.947 165.873 228.8 165.131 222.865C164.946 222.042 164.972 221.186 165.208 220.376C165.444 219.565 165.881 218.826 166.48 218.225C168.72 216.184 172.525 216.891 172.957 216.985C173.314 217.082 173.619 217.311 173.812 217.623C174.004 217.935 174.069 218.308 173.994 218.666C173.918 219.024 173.708 219.34 173.405 219.551C173.102 219.761 172.73 219.849 172.363 219.798C171.648 219.652 169.408 219.438 168.437 220.332C168.261 220.492 167.735 220.972 167.937 222.505C168.531 227.226 169.408 227.319 174.01 226.986C174.207 226.959 174.409 226.973 174.601 227.026C174.793 227.079 174.972 227.171 175.127 227.295C175.282 227.42 175.409 227.574 175.501 227.749C175.593 227.924 175.648 228.116 175.661 228.313C175.675 228.509 175.648 228.707 175.582 228.893C175.515 229.079 175.411 229.249 175.275 229.394C175.139 229.538 174.975 229.653 174.792 229.732C174.609 229.811 174.412 229.853 174.212 229.853C173.457 229.906 172.701 229.947 171.999 229.947Z" fill="#FFEDE8" stroke="#263238" stroke-linecap="round" stroke-linejoin="round"/>
<path d="M182.673 233.225H176.628C175.679 233.225 174.766 232.873 174.068 232.238C173.371 231.603 172.941 230.732 172.863 229.798L171.513 214.502H187.706L186.357 229.798C186.277 230.717 185.858 231.575 185.178 232.208C184.498 232.84 183.606 233.202 182.673 233.225V233.225Z" fill="#FFEDE8" stroke="#263238" stroke-linecap="round" stroke-linejoin="round"/>
<path d="M189.056 234.229H169.57L167.127 232.215H191.485L189.056 234.229Z" fill="#FFEDE8" stroke="#263238" stroke-linecap="round" stroke-linejoin="round"/>
<path d="M163.903 180.67C164.834 174.882 162.675 171.228 160.219 170.002C159.261 169.535 156.994 168.668 154.511 167.601C153.513 173.415 150.328 182.763 140.194 183.39C129.399 184.057 120.33 173.135 116.161 167.121C114.474 167.695 112.882 168.228 111.559 168.788C111.205 168.935 110.87 169.123 110.561 169.348C114.11 174.296 119.372 182.977 120.182 191.912C120.535 194.598 119.999 197.325 118.654 199.685C117.309 202.046 115.227 203.912 112.72 205.007C115.418 214.822 118.266 225.783 118.644 226.904C119.264 228.731 117.928 235.331 121.342 235.331C124.757 235.331 161.474 236.038 163.013 233.905C164.551 231.771 162.082 223.236 162.082 221.129C162.082 219.022 164.241 217.475 167.317 211.688C170.394 205.9 166.71 199.819 166.089 196.166C165.469 192.512 162.945 186.444 163.903 180.67Z" fill="#AE4B2B" stroke="#263238" stroke-linecap="round" stroke-linejoin="round"/>
<path d="M97.6596 233.613C97.6596 233.613 127.536 220.531 132.461 215.663C137.387 210.796 136.159 206.529 137.697 204.395C139.144 202.752 140.495 201.029 141.745 199.234C142.987 197.101 144.215 197.407 144.215 199.528C144.215 201.648 142.312 203.182 142.312 204.102V205.009C142.312 205.009 150.004 201.968 151.853 201.355C153.701 200.741 156.481 197.354 156.792 199.528C157.102 201.701 153.391 203.182 153.094 205.929C152.797 208.676 153.094 212.01 151.245 214.143C149.397 216.277 142.933 219.317 139.843 220.224C136.753 221.131 118.252 232.706 109.98 239.094C101.708 245.481 93.9622 250.655 90.5752 249.135C87.1881 247.615 91.5063 237.267 91.5063 237.267" fill="#FFEDE8"/>
<path d="M97.6596 233.613C97.6596 233.613 127.536 220.531 132.461 215.663C137.387 210.796 136.159 206.529 137.697 204.395C139.144 202.752 140.495 201.029 141.745 199.234C142.987 197.101 144.215 197.407 144.215 199.528C144.215 201.648 142.312 203.182 142.312 204.102V205.009C142.312 205.009 150.004 201.968 151.853 201.355C153.701 200.741 156.481 197.354 156.792 199.528C157.102 201.701 153.391 203.182 153.094 205.929C152.797 208.676 153.094 212.01 151.245 214.143C149.397 216.277 142.933 219.317 139.843 220.224C136.753 221.131 118.252 232.706 109.98 239.094C101.708 245.481 93.9622 250.655 90.5752 249.135C87.1881 247.615 91.5063 237.267 91.5063 237.267" stroke="#263238" stroke-linecap="round" stroke-linejoin="round"/>
</g>
<defs>
<clipPath id="clip0_20_5247">
<rect width="563" height="478" fill="white"/>
</clipPath>
</defs>
</svg>
